<svg xmlns="http://www.w3.org/2000/svg" viewBox="0 0 500 500"><g id="freepik--background-simple--inject-31"><path d="M468,179.65a225.58,225.58,0,0,0-9.61-22.59C426.69,92.58,367.69,48.86,295.06,37.37q-4.69-.75-9.42-1.31c-59.28-7.13-142.27,1.76-176.11,56.56-17.57,28.46-10.36,64.35-29,92C56.4,220.51,25.38,238.44,19.64,294.45c-4.23,41.21-2.26,85.75,26.88,118.62,34.34,38.75,93.27,52.09,143.61,44.65,48.86-7.21,92.6-31.34,135.33-54,40.56-21.51,87-37.13,119.82-70C486.72,292.19,486.69,231.48,468,179.65Z" style="fill:#4A0FCA"></path><path d="M468,179.65a225.58,225.58,0,0,0-9.61-22.59C426.69,92.58,367.69,48.86,295.06,37.37q-4.69-.75-9.42-1.31c-59.28-7.13-142.27,1.76-176.11,56.56-17.57,28.46-10.36,64.35-29,92C56.4,220.51,25.38,238.44,19.64,294.45c-4.23,41.21-2.26,85.75,26.88,118.62,34.34,38.75,93.27,52.09,143.61,44.65,48.86-7.21,92.6-31.34,135.33-54,40.56-21.51,87-37.13,119.82-70C486.72,292.19,486.69,231.48,468,179.65Z" style="fill:#fff;opacity:0.7000000000000001"></path></g><g id="freepik--Plants--inject-31"><path d="M46.6,190.06c4.22,1,13.74-.95,13.75-.95s-3.19-5.89-3.44-6.23c-2.9-4-10.85-10-16.11-8.34a6.55,6.55,0,0,0-3.7,9C38.67,187.14,43,189.21,46.6,190.06Z" style="fill:#ccc"></path><path d="M143.67,174.6c.09,0,.58-6.67.56-7.1-.2-4.94-3.5-14.36-8.83-15.83a6.55,6.55,0,0,0-8.07,5.47c-.66,3.85,1.82,8,4.34,10.67C134.64,171,143.66,174.6,143.67,174.6Z" style="fill:#ccc"></path><path d="M165.9,134.78c-5.52.4-10.6,9-11.78,13.79-.1.41-.93,7.08-.83,7.07l.11,0c-.81,1.35-1.67,2.81-2.57,4.42-1.65,3-3.48,6.38-5.22,10.2a116.34,116.34,0,0,0-5.05,12.6A85.64,85.64,0,0,0,137,197.59c0,.06,0,.12,0,.18-.26-1.6-1.14-6.05-1.25-6.38-1.5-4.71-7.17-12.93-12.7-12.95a6.56,6.56,0,0,0-6.34,7.42c.39,3.88,3.86,7.21,7,9.14,3.55,2.18,12.51,3.28,13.22,3.36a116.85,116.85,0,0,0-.89,15.45c0,3,.11,6,.25,9.07-.27-1.38-.52-2.61-.57-2.77-1.5-4.71-7.17-12.93-12.71-12.94a6.54,6.54,0,0,0-6.33,7.41c.38,3.89,3.86,7.22,7,9.14s10.81,3.05,12.83,3.31c.07,1.17.12,2.33.19,3.49.34,5.59.71,11.16.9,16.63.06,1.93.06,3.83.06,5.74-.24-1.22-.45-2.25-.5-2.4-1.5-4.71-7.17-12.93-12.71-13A6.56,6.56,0,0,0,118.1,245c.38,3.88,3.86,7.21,7,9.14s10.07,2.94,12.47,3.26c-.06,1.95-.11,3.9-.25,5.79-.13,1.29-.16,2.53-.36,3.82s-.34,2.54-.5,3.79c-.41,2.4-.82,4.87-1.28,7.2-.31,1.62-.63,3.16-.95,4.71,0-1.92-.21-5.68-.26-6a25.33,25.33,0,0,0-5.57-11.56,6.93,6.93,0,0,0-.35-1.41,6.55,6.55,0,0,0-8.87-4c-5,2.36-6.67,12.2-6,17.11,0,.28.79,3.38,1.3,5.32-.47-1.1-.92-2.17-1.42-3.29-1-2.23-2-4.42-3.12-6.79l-1.75-3.4c-.55-1.15-1.29-2.29-1.94-3.45-1.55-2.65-3.26-5.27-5-7.87,2-.86,8.82-4,11.31-6.75s4.88-6.91,4.15-10.75a6.54,6.54,0,0,0-8.15-5.33c-5.31,1.57-8.44,11.05-8.56,16,0,.31.31,3.86.52,5.81-1.08-1.55-2.15-3.11-3.3-4.64-3.31-4.43-6.79-8.82-10.24-13.21-1.06-1.34-2.1-2.69-3.15-4,.7-.3,9-3.87,11.74-6.94,2.48-2.74,4.88-6.91,4.15-10.75a6.54,6.54,0,0,0-8.16-5.33c-5.3,1.57-8.43,11-8.55,16,0,.37.45,5.48.63,6.78-2.3-3-4.57-6-6.68-9a114.34,114.34,0,0,1-7.81-12.76c.32-.14,9-3.82,11.81-7,2.48-2.73,4.88-6.91,4.15-10.75a6.55,6.55,0,0,0-8.16-5.33c-5.3,1.57-8.43,11-8.55,16,0,.33.34,4.23.55,6.07l-.31.09a84.11,84.11,0,0,1-5.41-14c-.8-2.65-1.41-5.22-2-7.74,1.68-.52,9.32-3,12.21-5.54s5.6-6.33,5.3-10.23a6.54,6.54,0,0,0-7.52-6.19c-5.45,1-9.6,10-10.26,14.95,0,.27-.1,3-.12,5-.22-1.14-.48-2.32-.67-3.41-.74-4.12-1.17-7.94-1.52-11.32-.18-1.93-.31-3.68-.41-5.31,1.38-1.37,6.87-7,8.23-10.49s2.06-8.2,0-11.52a6.55,6.55,0,0,0-9.54-2C52.54,147,53,157,54.71,161.63c.15.4,3.13,6.43,3.2,6.35l.08-.08c.07,1.58.16,3.26.29,5.11.28,3.39.62,7.23,1.28,11.38a117.27,117.27,0,0,0,2.74,13.3A85.16,85.16,0,0,0,67.45,212l.09.16c-1.1-1.19-4.29-4.41-4.57-4.63-3.85-3.1-13.11-6.82-17.73-3.79a6.54,6.54,0,0,0-1.19,9.68c2.46,3,7.2,3.89,10.88,3.76,4.17-.14,12.25-4.17,12.89-4.49A114.93,114.93,0,0,0,75.59,226c1.67,2.51,3.43,5,5.22,7.43-1-1-1.87-1.88-2-2-3.85-3.1-13.11-6.83-17.74-3.79a6.56,6.56,0,0,0-1.19,9.68c2.46,3,7.2,3.89,10.89,3.76s10.7-3.42,12.53-4.32c.7.93,1.38,1.88,2.09,2.81,3.36,4.47,6.74,8.91,9.91,13.37,1.12,1.58,2.17,3.16,3.22,4.75-.87-.89-1.62-1.62-1.74-1.72-3.85-3.1-13.11-6.83-17.74-3.79a6.55,6.55,0,0,0-1.19,9.67c2.46,3,7.2,3.9,10.89,3.77s10-3.11,12.2-4.16c1,1.65,2.06,3.31,3,5,.61,1.15,1.27,2.2,1.81,3.38l1.67,3.44c1,2.23,2,4.52,2.91,6.71.64,1.53,1.22,3,1.81,4.46-1.1-1.58-3.31-4.62-3.53-4.86-3.33-3.64-11.92-8.73-17-6.42A6.55,6.55,0,0,0,89,282.55c2,3.37,6.53,4.94,10.2,5.37,4,.47,12.3-2.14,13.34-2.47,1,2.44,1.88,4.82,2.71,7.08,2.87,7.75,5,14.32,6.38,19l3.69-.67c0-.11-.06-.2-.1-.31-1.53-4.67-3.81-11.32-6.91-19.16-1-2.48-2.06-5.11-3.2-7.8a70.53,70.53,0,0,0,6.81-4.85c3.34,2.51,11.12,4.74,12.13,5-.54,2.56-1.09,5.05-1.64,7.4-1.89,8-3.76,14.68-5.15,19.34l4-.74c1.24-4.59,2.77-10.69,4.3-17.89.55-2.6,1.1-5.4,1.63-8.27,1.06,0,9.75.21,13.5-1.39,3.4-1.44,7.32-4.22,8.27-8a6.55,6.55,0,0,0-5.17-8.26c-5.48-.8-12.29,6.49-14.47,10.93-.13.26-1.2,3.26-1.85,5.16.21-1.17.43-2.31.63-3.53.41-2.39.76-4.79,1.14-7.38.14-1.25.28-2.52.42-3.8s.19-2.62.29-3.95c.16-3.07.18-6.2.13-9.34,2.1.36,9.57,1.52,13.16.61s7.88-3.07,9.39-6.68A6.56,6.56,0,0,0,158.8,239c-5.29-1.61-13.13,4.57-16,8.62-.17.25-1.87,3.39-2.77,5.14,0-1.9-.08-3.79-.19-5.7-.31-5.52-.8-11.1-1.26-16.67-.14-1.7-.26-3.4-.39-5.1.74.13,9.59,1.71,13.62.68,3.58-.91,7.88-3.07,9.39-6.67a6.55,6.55,0,0,0-3.86-8.95c-5.3-1.61-13.14,4.56-16,8.62-.21.31-2.65,4.83-3.21,6-.28-3.75-.53-7.49-.62-11.19a115.08,115.08,0,0,1,.53-14.95c.34.07,9.57,1.75,13.69.7,3.58-.91,7.88-3.07,9.4-6.67a6.55,6.55,0,0,0-3.87-9c-5.29-1.62-13.13,4.56-16,8.62-.19.27-2,3.71-2.9,5.36l-.3-.09a83.68,83.68,0,0,1,3.23-14.69c.8-2.65,1.71-5.14,2.65-7.54,1.69.49,9.42,2.65,13.23,2.12,3.66-.52,8.17-2.19,10.07-5.6a6.54,6.54,0,0,0-2.86-9.32c-5.08-2.19-13.55,3.09-16.8,6.81-.18.2-1.75,2.46-2.87,4.12.44-1.08.88-2.2,1.32-3.22,1.65-3.85,3.41-7.26,5-10.28.91-1.71,1.77-3.23,2.59-4.65,1.9-.38,9.56-2,12.65-4.21s6.24-5.7,6.35-9.61A6.55,6.55,0,0,0,165.9,134.78Z" style="fill:#ccc"></path><path d="M231.06,331.11c4,1.74,13.69,1.52,13.7,1.52s-2.09-6.36-2.27-6.75c-2.14-4.46-8.88-11.82-14.36-11.08a6.56,6.56,0,0,0-5.26,8.21C223.78,326.81,227.68,329.63,231.06,331.11Z" style="fill:#ccc"></path><path d="M329.33,333.25c.08.05,1.76-6.46,1.82-6.88.69-4.9-.88-14.76-5.86-17.16a6.54,6.54,0,0,0-8.91,3.94c-1.34,3.67.36,8.18,2.36,11.28C321.1,328.07,329.32,333.24,329.33,333.25Z" style="fill:#ccc"></path><path d="M358.32,298c-5.5-.59-12,6.95-14.05,11.47-.17.39-2.19,6.8-2.09,6.8h.12c-1,1.18-2.14,2.46-3.32,3.88-2.15,2.65-4.56,5.66-7,9.11a115.22,115.22,0,0,0-7.22,11.49,85.79,85.79,0,0,0-6.16,13.88c0,.06,0,.12-.05.18,0-1.62,0-6.16-.09-6.51-.64-4.9-4.75-14-10.19-15a6.54,6.54,0,0,0-7.55,6.16c-.32,3.89,2.5,7.79,5.26,10.25,3.1,2.77,11.72,5.46,12.41,5.67a115.47,115.47,0,0,0-3.65,15c-.52,3-1,6-1.37,9,0-1.41-.05-2.66-.07-2.83-.64-4.91-4.74-14-10.19-15a6.55,6.55,0,0,0-7.55,6.16c-.32,3.9,2.5,7.79,5.26,10.25s10.09,4.94,12,5.55c-.14,1.16-.29,2.32-.43,3.47-.67,5.56-1.3,11.1-2.1,16.52-.28,1.91-.62,3.79-1,5.66,0-1.25,0-2.3-.06-2.45-.64-4.91-4.75-14-10.19-15a6.56,6.56,0,0,0-7.56,6.16c-.31,3.89,2.51,7.79,5.26,10.25s9.39,4.69,11.69,5.44c-.4,1.91-.8,3.82-1.28,5.65-.36,1.24-.61,2.46-1,3.69s-.78,2.44-1.17,3.64c-.83,2.29-1.68,4.65-2.54,6.86-.59,1.54-1.19,3-1.78,4.47.3-1.9.81-5.63.82-5.95a25.49,25.49,0,0,0-3.41-12.37,8.83,8.83,0,0,0-.09-1.45,6.55,6.55,0,0,0-8-5.55c-5.35,1.42-8.74,10.81-9,15.74,0,.29.18,3.47.33,5.47-.27-1.16-.52-2.29-.81-3.49-.56-2.36-1.19-4.71-1.86-7.23-.36-1.21-.73-2.43-1.1-3.66s-.87-2.48-1.3-3.74c-1.05-2.89-2.27-5.77-3.55-8.65,2.07-.49,9.39-2.36,12.34-4.62s6-5.92,6-9.83a6.54,6.54,0,0,0-7.07-6.7c-5.5.59-10.28,9.36-11.28,14.2-.06.3-.39,3.86-.53,5.81-.78-1.72-1.56-3.44-2.41-5.16-2.46-5-5.1-9.89-7.72-14.82-.8-1.52-1.58-3-2.37-4.55.74-.17,9.5-2.2,12.79-4.73,2.93-2.24,6-5.92,6-9.83a6.55,6.55,0,0,0-7.08-6.7c-5.5.6-10.27,9.36-11.27,14.2-.08.37-.54,5.48-.59,6.79-1.74-3.34-3.43-6.68-5-10a115.37,115.37,0,0,1-5.4-14c.34-.08,9.49-2.16,12.86-4.75,2.93-2.25,6-5.92,6-9.83A6.55,6.55,0,0,0,261,335.8c-5.51.6-10.28,9.37-11.28,14.21-.07.32-.42,4.21-.55,6.07l-.31,0A84.34,84.34,0,0,1,246,341.33c-.3-2.75-.45-5.39-.53-8,1.75-.21,9.71-1.27,13-3.26s6.65-5.23,7.05-9.12a6.55,6.55,0,0,0-6.29-7.44c-5.54,0-11.25,8.18-12.77,12.88-.09.26-.64,2.95-1,4.92,0-1.17,0-2.37,0-3.48,0-4.19.27-8,.53-11.41.17-1.93.36-3.67.55-5.29,1.6-1.11,8-5.62,10-8.85S260,294.6,258.54,291a6.55,6.55,0,0,0-9-3.7c-4.92,2.54-6.21,12.44-5.39,17.31.07.42,1.92,6.88,2,6.83l.09-.07c-.21,1.56-.43,3.24-.62,5.07-.34,3.4-.69,7.23-.79,11.44a114.81,114.81,0,0,0,.33,13.57,84.5,84.5,0,0,0,2.51,15l.06.18c-.87-1.37-3.44-5.11-3.67-5.38-3.23-3.74-11.68-9.06-16.77-6.89a6.54,6.54,0,0,0-2.9,9.3c1.88,3.42,6.38,5.12,10,5.65,4.12.6,12.79-1.91,13.48-2.12a114,114,0,0,0,5.25,14.55c1.2,2.76,2.48,5.51,3.81,8.24-.79-1.15-1.51-2.18-1.62-2.32-3.24-3.74-11.68-9.06-16.78-6.89a6.55,6.55,0,0,0-2.9,9.3c1.88,3.43,6.39,5.12,10,5.65s11.14-1.45,13.1-2l1.55,3.14c2.51,5,5,10,7.37,14.93.82,1.75,1.57,3.5,2.32,5.25-.71-1-1.31-1.89-1.41-2-3.24-3.74-11.68-9.06-16.77-6.9a6.55,6.55,0,0,0-2.91,9.31c1.89,3.42,6.39,5.11,10,5.65s10.42-1.27,12.75-1.92c.72,1.82,1.44,3.63,2.05,5.42.39,1.24.85,2.4,1.17,3.65s.69,2.47,1,3.69c.57,2.36,1.17,4.8,1.66,7.12.36,1.61.67,3.15,1,4.71-.8-1.75-2.43-5.14-2.6-5.41-2.63-4.18-10.17-10.72-15.54-9.36a6.56,6.56,0,0,0-4.28,8.76c1.35,3.67,5.54,6,9.07,7.11,3.89,1.18,12.5.1,13.57,0,.51,2.57,1,5.07,1.4,7.44,1.44,8.15,2.33,15,2.89,19.81h3.75c0-.11,0-.21,0-.32-.67-4.88-1.73-11.82-3.37-20.09-.51-2.61-1.12-5.39-1.76-8.24a70.9,70.9,0,0,0,7.57-3.56c2.83,3.07,10.09,6.66,11,7.11-1,2.43-2,4.78-2.94,7-3.29,7.58-6.32,13.78-8.52,18.11H293c2-4.3,4.64-10,7.43-16.83,1-2.47,2-5.12,3.08-7.85,1,.22,9.56,1.95,13.53,1.05,3.6-.81,8-2.85,9.57-6.41a6.55,6.55,0,0,0-3.61-9c-5.25-1.76-13.26,4.19-16.19,8.17-.17.24-1.77,3-2.75,4.75.42-1.12.84-2.2,1.25-3.36.84-2.28,1.61-4.59,2.45-7.06.36-1.21.72-2.43,1.09-3.66s.65-2.55,1-3.84c.71-3,1.29-6.06,1.8-9.17,2,.73,9.14,3.21,12.84,2.95s8.3-1.61,10.44-4.88a6.56,6.56,0,0,0-2.21-9.5c-4.92-2.54-13.73,2.14-17.24,5.63-.22.22-2.45,3-3.64,4.55.29-1.87.59-3.73.83-5.63.68-5.49,1.2-11.07,1.74-16.63.16-1.7.35-3.4.53-5.09.71.26,9.13,3.4,13.27,3.11,3.69-.26,8.31-1.61,10.44-4.89a6.55,6.55,0,0,0-2.2-9.49c-4.92-2.54-13.74,2.14-17.24,5.62-.27.27-3.47,4.28-4.24,5.34.4-3.74.82-7.46,1.39-11.12a115.58,115.58,0,0,1,3.2-14.61c.33.12,9.1,3.44,13.35,3.14,3.68-.26,8.3-1.61,10.43-4.89a6.54,6.54,0,0,0-2.2-9.49c-4.92-2.54-13.74,2.14-17.24,5.62-.23.23-2.68,3.28-3.81,4.76l-.28-.14a84.5,84.5,0,0,1,5.81-13.88c1.26-2.46,2.6-4.75,3.95-6.94,1.57.78,8.79,4.29,12.64,4.44,3.69.15,8.43-.69,10.91-3.71a6.55,6.55,0,0,0-1.14-9.68c-4.62-3.06-13.89.62-17.76,3.7-.21.17-2.16,2.11-3.56,3.54.63-1,1.26-2,1.88-2.93,2.31-3.49,4.65-6.54,6.74-9.22,1.2-1.52,2.31-2.87,3.37-4.12,1.95,0,9.78-.27,13.2-1.88s7.16-4.49,8-8.31A6.55,6.55,0,0,0,358.32,298Z" style="fill:#ccc"></path><path d="M62.09,336.76c4.12,1.34,13.77.19,13.78.19s-2.7-6.13-2.92-6.5c-2.55-4.23-10-10.91-15.36-9.64a6.56,6.56,0,0,0-4.44,8.68C54.43,333.18,58.58,335.61,62.09,336.76Z" style="fill:#ccc"></path><path d="M160.1,329.4c.09.05,1.14-6.6,1.16-7,.2-4.94-2.3-14.6-7.5-16.52a6.56,6.56,0,0,0-8.49,4.79c-1,3.78,1.15,8.1,3.44,11C151.41,325,160.1,329.4,160.1,329.4Z" style="fill:#ccc"></path><path d="M185.56,291.56c-5.53-.06-11.31,8.08-12.88,12.77-.13.4-1.52,7-1.42,7h.12c-.92,1.28-1.9,2.66-2.93,4.19-1.89,2.84-4,6.06-6,9.73a117.32,117.32,0,0,0-6.07,12.14,84,84,0,0,0-4.8,14.41l0,.18c-.13-1.62-.64-6.13-.72-6.47-1.11-4.82-6.07-13.47-11.59-14a6.55,6.55,0,0,0-6.92,6.86c.06,3.91,3.24,7.51,6.22,9.7,3.36,2.46,12.2,4.3,12.9,4.44a116,116,0,0,0-2.17,15.32c-.24,3-.39,6-.5,9.06-.16-1.39-.31-2.64-.35-2.81-1.1-4.82-6.07-13.48-11.58-13.95a6.55,6.55,0,0,0-6.93,6.86c.06,3.91,3.25,7.51,6.22,9.7s10.53,3.93,12.52,4.36c0,1.16-.07,2.33-.1,3.49-.12,5.6-.22,11.18-.49,16.65-.09,1.93-.25,3.82-.41,5.72-.14-1.24-.27-2.28-.3-2.44-1.11-4.81-6.08-13.47-11.59-14a6.55,6.55,0,0,0-6.92,6.86c.05,3.91,3.24,7.52,6.22,9.7s9.79,3.76,12.16,4.28c-.22,1.94-.44,3.88-.73,5.75-.24,1.27-.37,2.51-.68,3.78s-.54,2.5-.81,3.73c-.61,2.36-1.22,4.79-1.87,7.07-.44,1.59-.89,3.1-1.34,4.62.12-1.92.26-5.68.24-6a25.43,25.43,0,0,0-4.59-12,7.75,7.75,0,0,0-.23-1.43,6.56,6.56,0,0,0-8.51-4.76c-5.19,1.93-7.66,11.61-7.43,16.54,0,.29.51,3.44.85,5.42-.38-1.13-.73-2.24-1.14-3.4-.78-2.3-1.64-4.57-2.55-7l-1.45-3.54c-.46-1.19-1.1-2.39-1.65-3.59-1.33-2.78-2.81-5.53-4.37-8.27,2-.69,9.12-3.26,11.83-5.79s5.44-6.48,5-10.36a6.54,6.54,0,0,0-7.69-6c-5.41,1.12-9.32,10.31-9.85,15.22,0,.31,0,3.88,0,5.84-1-1.64-1.89-3.28-2.91-4.9-2.92-4.7-6-9.36-9.11-14-.94-1.42-1.87-2.86-2.8-4.29.72-.24,9.24-3.11,12.28-5.94,2.69-2.52,5.43-6.48,5-10.36a6.56,6.56,0,0,0-7.69-6c-5.42,1.13-9.33,10.32-9.85,15.23,0,.37,0,5.5.06,6.81-2-3.15-4.06-6.31-5.91-9.51a114.51,114.51,0,0,1-6.72-13.37c.33-.11,9.24-3.06,12.34-6,2.7-2.52,5.44-6.48,5-10.37a6.54,6.54,0,0,0-7.68-6c-5.42,1.13-9.33,10.31-9.86,15.23,0,.32,0,4.23,0,6.09l-.31.07A84.67,84.67,0,0,1,78,345.49c-.58-2.71-1-5.33-1.3-7.88,1.72-.38,9.53-2.21,12.62-4.51s6.11-5.84,6.14-9.75a6.55,6.55,0,0,0-7-6.8c-5.51.53-10.4,9.23-11.46,14.05-.06.26-.35,3-.54,5-.13-1.15-.28-2.34-.38-3.45-.4-4.17-.51-8-.57-11.41,0-1.94,0-3.69,0-5.32C77,314.16,83,309,84.61,305.64s2.73-8,1-11.49a6.55,6.55,0,0,0-9.33-2.81c-4.65,3-5,13-3.7,17.75.11.41,2.58,6.67,2.66,6.6l.09-.07c-.06,1.57-.11,3.26-.13,5.11,0,3.41,0,7.26.32,11.45a118.48,118.48,0,0,0,1.63,13.48,85.14,85.14,0,0,0,4,14.66c0,.06,0,.11.07.17-1-1.28-3.91-4.76-4.16-5-3.58-3.41-12.5-7.89-17.36-5.24a6.54,6.54,0,0,0-2,9.54c2.2,3.23,6.85,4.48,10.53,4.65,4.16.2,12.55-3.14,13.22-3.4A117.33,117.33,0,0,0,88,375c1.46,2.63,3,5.24,4.59,7.83-.9-1.07-1.71-2-1.84-2.15-3.58-3.41-12.5-7.89-17.36-5.24a6.54,6.54,0,0,0-2,9.54c2.2,3.22,6.85,4.47,10.54,4.65s10.94-2.52,12.84-3.26l1.85,3c3,4.73,6,9.44,8.77,14.15,1,1.66,1.9,3.33,2.82,5-.8-1-1.49-1.75-1.6-1.87-3.58-3.4-12.5-7.88-17.36-5.24a6.54,6.54,0,0,0-2,9.54c2.2,3.23,6.85,4.48,10.54,4.66s10.24-2.27,12.5-3.14c.89,1.74,1.78,3.48,2.56,5.2.51,1.19,1.08,2.3,1.52,3.52s.93,2.39,1.38,3.57c.79,2.29,1.63,4.66,2.34,6.92.51,1.57,1,3.08,1.44,4.59-1-1.66-2.92-4.88-3.11-5.13-3-3.91-11.16-9.69-16.37-7.81a6.54,6.54,0,0,0-3.41,9.13c1.69,3.52,6.09,5.46,9.71,6.2,4,.8,12.44-1.11,13.5-1.35.76,2.51,1.48,4.95,2.12,7.28,2.21,8,3.76,14.68,4.78,19.43l3.73-.36c0-.11,0-.21-.07-.32-1.14-4.78-2.86-11.6-5.29-19.66-.77-2.56-1.63-5.27-2.55-8a70.46,70.46,0,0,0,7.19-4.28c3.12,2.78,10.69,5.66,11.67,6-.75,2.51-1.5,4.95-2.25,7.24-2.55,7.86-5,14.32-6.73,18.85l4.1-.4c1.61-4.47,3.65-10.42,5.76-17.47.77-2.55,1.54-5.29,2.31-8.11,1.06.12,9.71,1,13.57-.26,3.51-1.16,7.65-3.6,8.91-7.3a6.55,6.55,0,0,0-4.47-8.66c-5.39-1.25-12.79,5.45-15.33,9.69-.15.25-1.47,3.15-2.27,5,.31-1.15.62-2.27.92-3.46.61-2.35,1.16-4.72,1.75-7.26.24-1.24.49-2.49.74-3.76s.4-2.59.61-3.91c.42-3.05.7-6.16.91-9.3,2.06.53,9.41,2.32,13.06,1.7s8.11-2.41,9.92-5.87a6.56,6.56,0,0,0-3.11-9.24c-5.14-2.05-13.47,3.46-16.62,7.26-.19.24-2.15,3.23-3.19,4.89.11-1.89.23-3.77.28-5.69.15-5.53.13-11.13.13-16.71,0-1.72,0-3.42,0-5.13.73.2,9.42,2.51,13.51,1.82,3.64-.61,8.11-2.41,9.92-5.87a6.56,6.56,0,0,0-3.11-9.24c-5.14-2.05-13.47,3.46-16.62,7.26-.24.29-3,4.59-3.7,5.72,0-3.76.1-7.5.32-11.19a114.35,114.35,0,0,1,1.76-14.86c.34.09,9.4,2.54,13.59,1.84,3.64-.62,8.11-2.41,9.92-5.87a6.56,6.56,0,0,0-3.11-9.24c-5.14-2.05-13.47,3.45-16.62,7.26-.21.25-2.34,3.52-3.33,5.11l-.29-.12a84.47,84.47,0,0,1,4.44-14.38c1-2.57,2.13-5,3.26-7.28,1.64.62,9.17,3.42,13,3.2,3.68-.21,8.32-1.5,10.49-4.75a6.54,6.54,0,0,0-2.07-9.52c-4.88-2.6-13.76,2-17.31,5.39-.2.19-2,2.31-3.2,3.87.53-1,1.05-2.11,1.58-3.1,2-3.69,4-6.95,5.82-9.83,1.05-1.62,2-3.07,3-4.42,1.93-.22,9.7-1.21,12.95-3.14s6.7-5.17,7.13-9.05A6.55,6.55,0,0,0,185.56,291.56Z" style="fill:#ccc"></path></g><g id="freepik--Graphics--inject-31"><circle cx="369.3" cy="71.77" r="13.68" transform="translate(-6.74 60.34) rotate(-9.26)" style="fill:none;stroke:#ababab;stroke-miterlimit:10"></circle><path d="M401.07,75.68V67.86h-9.14a22.71,22.71,0,0,0-3.86-9.33l6.46-6.46L389,46.54,382.54,53a22.86,22.86,0,0,0-9.33-3.87V40h-7.82v9.14A22.86,22.86,0,0,0,356.06,53l-6.46-6.47-5.53,5.53,6.46,6.46a23,23,0,0,0-3.86,9.33h-9.14v7.82h9.14A23,23,0,0,0,350.53,85l-6.46,6.46L349.6,97l6.46-6.46a22.71,22.71,0,0,0,9.33,3.86v9.14h7.82V94.4a22.71,22.71,0,0,0,9.33-3.86L389,97l5.53-5.53L388.07,85a22.71,22.71,0,0,0,3.86-9.33Z" style="fill:none;stroke:#ababab;stroke-miterlimit:10"></path><circle cx="401.07" cy="121.62" r="13.68" transform="translate(31.47 319.22) rotate(-45)" style="fill:none;stroke:#ababab;stroke-miterlimit:10"></circle><path d="M432.84,125.53v-7.82H423.7a22.81,22.81,0,0,0-3.86-9.32l6.46-6.47-5.53-5.52-6.46,6.46A22.86,22.86,0,0,0,405,99V89.86h-7.82V99a22.86,22.86,0,0,0-9.33,3.87l-6.46-6.46-5.53,5.52,6.46,6.47a22.81,22.81,0,0,0-3.86,9.32H369.3v7.82h9.14a22.85,22.85,0,0,0,3.86,9.33l-6.46,6.46,5.53,5.53,6.46-6.46a22.86,22.86,0,0,0,9.33,3.87v9.13H405v-9.13a22.86,22.86,0,0,0,9.33-3.87l6.46,6.46,5.53-5.53-6.46-6.46a22.85,22.85,0,0,0,3.86-9.33Z" style="fill:none;stroke:#ababab;stroke-miterlimit:10"></path><circle cx="74.04" cy="94.58" r="9.05" style="fill:none;stroke:#ababab;stroke-miterlimit:10"></circle><path d="M95,97.17V92H89a15.08,15.08,0,0,0-2.56-6.17l4.28-4.27-3.66-3.65-4.27,4.27a15.08,15.08,0,0,0-6.17-2.56v-6H71.45v6a15,15,0,0,0-6.16,2.56L61,77.91l-3.66,3.65,4.27,4.27A15.21,15.21,0,0,0,59.08,92H53v5.17h6a15.21,15.21,0,0,0,2.55,6.17l-4.27,4.27L61,111.26,65.29,107a15,15,0,0,0,6.16,2.56v6h5.17v-6A15.08,15.08,0,0,0,82.79,107l4.27,4.27,3.66-3.65-4.28-4.27A15.08,15.08,0,0,0,89,97.17Z" style="fill:none;stroke:#ababab;stroke-miterlimit:10"></path><circle cx="422.04" cy="345.58" r="9.05" style="fill:none;stroke:#ababab;stroke-miterlimit:10"></circle><path d="M443,348.17V343h-6a15.08,15.08,0,0,0-2.56-6.17l4.28-4.27-3.66-3.65-4.27,4.27a15.08,15.08,0,0,0-6.17-2.56v-6h-5.17v6a15,15,0,0,0-6.16,2.56L409,328.91l-3.66,3.65,4.27,4.27a15.21,15.21,0,0,0-2.55,6.17h-6v5.17h6a15.21,15.21,0,0,0,2.55,6.17l-4.27,4.27,3.66,3.65,4.27-4.27a15,15,0,0,0,6.16,2.56v6h5.17v-6a15.08,15.08,0,0,0,6.17-2.56l4.27,4.27,3.66-3.65-4.28-4.27a15.08,15.08,0,0,0,2.56-6.17Z" style="fill:none;stroke:#ababab;stroke-miterlimit:10"></path></g><g id="freepik--Floor--inject-31"><line x1="468.59" y1="464" x2="476" y2="464" style="fill:none;stroke:#263238;stroke-linecap:round;stroke-linejoin:round"></line><line x1="85.86" y1="464" x2="460.92" y2="464" style="fill:none;stroke:#263238;stroke-linecap:round;stroke-linejoin:round"></line><line x1="28" y1="464" x2="79.14" y2="464" style="fill:none;stroke:#263238;stroke-linecap:round;stroke-linejoin:round"></line></g></svg>