<svg xmlns="http://www.w3.org/2000/svg" xmlns:xlink="http://www.w3.org/1999/xlink" viewBox="0 0 500 500"><defs><clipPath id="freepik--clip-path--inject-35"><rect x="164.86" y="73.47" width="188" height="242.07" rx="8.26" style="fill:#4A0FCA;stroke:#263238;stroke-linecap:round;stroke-linejoin:round"></rect></clipPath><clipPath id="freepik--clip-path-2--inject-35"><rect x="172.86" y="188.73" width="86" height="67.08" style="fill:#4A0FCA;stroke:#263238;stroke-linecap:round;stroke-linejoin:round"></rect></clipPath><clipPath id="freepik--clip-path-3--inject-35"><path d="M380.93,284.11l18,68s.25,7.5,3.75,13.25l4.91,57.28s3.75,5.75,17.25,0c0,0,.59-41-4.41-66.53l-4.25-48.58a73.07,73.07,0,0,0-.75-22.92Z" style="fill:#263238;stroke:#263238;stroke-linecap:round;stroke-linejoin:round;stroke-width:0.75px"></path></clipPath><clipPath id="freepik--clip-path-4--inject-35"><path d="M384.63,192.13v-3.79s-6.49,1-7.38-.67.56-8.61.56-8.61-3.12.11-3.12-1.34,3.68-7.59,3.68-7.59-.44-4.92,0-6.48,5-10.39,5-10.39,6.7,3.68,6.48,5.69-2.12,3.91-.56,5.59,3.69,6.2,3,8.35l1,.7s.56-4,2.8-4.69,4,3.79,2.45,6.92-3.35,2.57-3.35,2.57.9,5.37,3.24,7.15l.71,5.59Z" style="fill:#fff;stroke:#263238;stroke-linecap:round;stroke-linejoin:round"></path></clipPath><clipPath id="freepik--clip-path-5--inject-35"><path d="M421.81,213.93s18.88,38.87,14.88,44.89-21.25,25.76-21.25,25.76l-7-8,14-23.76-7.25-14.74S411.94,226.52,421.81,213.93Z" style="fill:#4A0FCA;stroke:#263238;stroke-linecap:round;stroke-linejoin:round"></path></clipPath><clipPath id="freepik--clip-path-6--inject-35"><path d="M362.19,283.67,365.92,253l-1.51-46a9,9,0,0,1,6.52-9c12.7-3.68,39.89-8.2,50.88,15.94a11,11,0,0,1,.85,6.45l-7.47,42.95,2,23.43S392.85,304.67,362.19,283.67Z" style="fill:#4A0FCA;stroke:#263238;stroke-linecap:round;stroke-linejoin:round"></path></clipPath><clipPath id="freepik--clip-path-7--inject-35"><rect x="141.24" y="293.51" width="45.55" height="34.89" rx="8.32" style="fill:#263238;stroke:#263238;stroke-linecap:round;stroke-linejoin:round"></rect></clipPath><clipPath id="freepik--clip-path-8--inject-35"><path d="M189.36,330.15s62.09-4.16,64.92,4.61,4.16,36.84,4.3,48-.74,25.25-.74,25.25a19.72,19.72,0,0,1-11.44,0s-2.73-16.19-4.7-24.06-4.06-18.37-2.87-35c0,0-59.5,9-59.83-1.44S189.36,330.15,189.36,330.15Z" style="fill:#fff;stroke:#263238;stroke-linecap:round;stroke-linejoin:round"></path></clipPath><clipPath id="freepik--clip-path-9--inject-35"><path d="M259.28,404.44l-.43,4.2s-7.1,3.81-13.35.29l-1.3-4.13S248.43,407.7,259.28,404.44Z" style="fill:#4A0FCA;stroke:#263238;stroke-linecap:round;stroke-linejoin:round;stroke-width:0.75px"></path></clipPath><clipPath id="freepik--clip-path-10--inject-35"><path d="M168,332.49s-8.81,17.6,2.45,19.16,45.68-.44,45.68-.44a174.54,174.54,0,0,0-11.44,21.58c-4.46,10.54-8.91,21.39-8.91,21.39s1.93,5.2,9.8,6.24c0,0,6.39-10,20.35-25.55s17.83-31.2,14.86-36.55-18.42-8.24-43.38-9.39Z" style="fill:#fff;stroke:#263238;stroke-linecap:round;stroke-linejoin:round"></path></clipPath><clipPath id="freepik--clip-path-11--inject-35"><path d="M208.22,398.93l-2.67,3.27s-8-.74-11.29-7.13l1.19-4.16S197.38,395.66,208.22,398.93Z" style="fill:#4A0FCA;stroke:#263238;stroke-linecap:round;stroke-linejoin:round;stroke-width:0.75px"></path></clipPath><clipPath id="freepik--clip-path-12--inject-35"><polygon points="193.54 258.45 194.87 250.65 184.81 241.98 181.97 255.04 193.54 258.45" style="fill:#fff;stroke:#263238;stroke-linecap:round;stroke-linejoin:round"></polygon></clipPath><clipPath id="freepik--clip-path-13--inject-35"><path d="M201.65,261.24l20.14.42,7.56-21L236,243s-3.41,26.59-6.82,28.17S205,275,205,275,198.54,267.87,201.65,261.24Z" style="fill:#4A0FCA;stroke:#263238;stroke-linecap:round;stroke-linejoin:round"></path></clipPath><clipPath id="freepik--clip-path-14--inject-35"><rect x="227.41" y="194.9" width="7.24" height="5.16" transform="translate(-38.23 56.51) rotate(-12.89)" style="fill:#4A0FCA"></rect></clipPath><clipPath id="freepik--clip-path-15--inject-35"><rect x="228.84" y="201.13" width="7.24" height="5.16" transform="translate(-39.58 56.98) rotate(-12.89)" style="fill:#4A0FCA"></rect></clipPath><clipPath id="freepik--clip-path-16--inject-35"><rect x="231.69" y="213.58" width="7.24" height="5.16" transform="translate(-42.29 57.93) rotate(-12.89)" style="fill:#4A0FCA"></rect></clipPath><clipPath id="freepik--clip-path-17--inject-35"><rect x="233.11" y="219.81" width="7.24" height="5.16" transform="translate(-43.64 58.41) rotate(-12.89)" style="fill:#4A0FCA"></rect></clipPath><clipPath id="freepik--clip-path-18--inject-35"><path d="M164.16,261.68l6.29,56.24-4,16.91s4.21.95,15.88-2.72,24.16-2.57,24.16-2.57,5.17-37.44,3.1-49.14a46.85,46.85,0,0,0-7.92-19.16s-22.41-9.8-36.1-2.31A2.77,2.77,0,0,0,164.16,261.68Z" style="fill:#4A0FCA;stroke:#263238;stroke-linecap:round;stroke-linejoin:round"></path></clipPath><clipPath id="freepik--clip-path-19--inject-35"><rect x="221.68" y="319.08" width="5.8" height="4.13" transform="translate(497.51 39.93) rotate(79.11)" style="fill:#4A0FCA"></rect></clipPath><clipPath id="freepik--clip-path-20--inject-35"><rect x="216.66" y="320.04" width="5.8" height="4.13" transform="translate(494.38 45.65) rotate(79.11)" style="fill:#4A0FCA"></rect></clipPath><clipPath id="freepik--clip-path-21--inject-35"><rect x="206.62" y="321.98" width="5.79" height="4.13" transform="translate(488.14 57.07) rotate(79.11)" style="fill:#4A0FCA"></rect></clipPath><clipPath id="freepik--clip-path-22--inject-35"><rect x="201.6" y="322.94" width="5.79" height="4.13" transform="translate(485.01 62.78) rotate(79.11)" style="fill:#4A0FCA"></rect></clipPath><clipPath id="freepik--clip-path-23--inject-35"><rect x="216.2" y="306.79" width="5.79" height="4.13" transform="translate(309.15 -58.96) rotate(49.11)" style="fill:#4A0FCA"></rect></clipPath><clipPath id="freepik--clip-path-24--inject-35"><rect x="212.33" y="310.13" width="5.8" height="4.13" transform="translate(310.35 -54.88) rotate(49.11)" style="fill:#4A0FCA"></rect></clipPath><clipPath id="freepik--clip-path-25--inject-35"><rect x="204.61" y="316.83" width="5.79" height="4.13" transform="translate(312.74 -46.72) rotate(49.11)" style="fill:#4A0FCA"></rect></clipPath><clipPath id="freepik--clip-path-26--inject-35"><rect x="200.74" y="320.17" width="5.8" height="4.13" transform="translate(313.93 -42.65) rotate(49.11)" style="fill:#4A0FCA"></rect></clipPath><clipPath id="freepik--clip-path-27--inject-35"><rect x="204.64" y="298.57" width="5.8" height="4.13" transform="translate(109.85 -51.37) rotate(19.11)" style="fill:#4A0FCA"></rect></clipPath><clipPath id="freepik--clip-path-28--inject-35"><rect x="202.96" y="303.4" width="5.79" height="4.13" transform="translate(111.34 -50.56) rotate(19.11)" style="fill:#4A0FCA"></rect></clipPath><clipPath id="freepik--clip-path-29--inject-35"><rect x="199.62" y="313.06" width="5.8" height="4.13" transform="translate(114.32 -48.93) rotate(19.11)" style="fill:#4A0FCA"></rect></clipPath><clipPath id="freepik--clip-path-30--inject-35"><rect x="197.94" y="317.89" width="5.79" height="4.13" transform="translate(115.81 -48.12) rotate(19.11)" style="fill:#4A0FCA"></rect></clipPath><clipPath id="freepik--clip-path-31--inject-35"><path d="M97.94,179.18c.09,2.68.37,10.72.37,10.72l15.94,9.56,1-18.22.55-25,2.62-3.64s3.92-6-2.62-8.33-4.72,2-11.22,2.73S82.84,158,89.74,166.93,97.78,174.7,97.94,179.18Z" style="fill:#999;stroke:#263238;stroke-linecap:round;stroke-linejoin:round"></path></clipPath><clipPath id="freepik--clip-path-32--inject-35"><path d="M104.18,165.89s-6.42.17-3,5,7,3.91,7,3.91l3.91,7.45s13.61,1.92,16.82,1-2.34-12.14-2.34-12.14l2.13-2.44a1.31,1.31,0,0,0-.17-1.9l-5.08-4.08c.43-2.51-5.12-10.06-5.12-10.06s-8.24-.09-9,2.69a47.55,47.55,0,0,0-1.13,5l-4.68,1.91Z" style="fill:#999;stroke:#263238;stroke-linecap:round;stroke-linejoin:round"></path></clipPath><clipPath id="freepik--clip-path-33--inject-35"><polygon points="187.14 174.86 195.6 155.13 210.3 170.77 187.14 174.86" style="fill:#4A0FCA;stroke:#263238;stroke-linecap:round;stroke-linejoin:round;stroke-width:0.75px"></polygon></clipPath><clipPath id="freepik--clip-path-34--inject-35"><path d="M207.11,153.1a3,3,0,1,1-3.47-2.43A3,3,0,0,1,207.11,153.1Z" style="fill:#4A0FCA;stroke:#263238;stroke-linecap:round;stroke-linejoin:round;stroke-width:0.75px"></path></clipPath><clipPath id="freepik--clip-path-35--inject-35"><path d="M127.15,290.94S116.47,320.61,102.8,349c0,0-2.65,12.48-8.62,21l-15,47.89s-6.58,2.71-14.38-2c0,0,3.72-30.64,13.23-52.87l5.61-17.61,7-35.46s-5.93-10.26-4.35-25.32l26.33-.36Z" style="fill:#4A0FCA;stroke:#263238;stroke-linecap:round;stroke-linejoin:round"></path></clipPath><clipPath id="freepik--clip-path-36--inject-35"><polygon points="110.48 292.93 122.22 274.95 134 292.89 110.48 292.93" style="fill:#4A0FCA;stroke:#263238;stroke-linecap:round;stroke-linejoin:round;stroke-width:0.75px"></polygon></clipPath><clipPath id="freepik--clip-path-37--inject-35"><path d="M133.91,274.93a3,3,0,1,1-3-3A3,3,0,0,1,133.91,274.93Z" style="fill:#4A0FCA;stroke:#263238;stroke-linecap:round;stroke-linejoin:round;stroke-width:0.75px"></path></clipPath><clipPath id="freepik--clip-path-38--inject-35"><polygon points="111.96 295 121.29 275.66 135.29 291.93 111.96 295" style="fill:#4A0FCA;stroke:#263238;stroke-linecap:round;stroke-linejoin:round;stroke-width:0.75px"></polygon></clipPath><clipPath id="freepik--clip-path-39--inject-35"><path d="M132.88,274.13a3,3,0,1,1-3.37-2.58A3,3,0,0,1,132.88,274.13Z" style="fill:#4A0FCA;stroke:#263238;stroke-linecap:round;stroke-linejoin:round;stroke-width:0.75px"></path></clipPath></defs><g id="freepik--Shadow--inject-35"><path d="M427.41,428.72H89.91c-20.37,3.12-36.71,7.16-31.58,11.76,12,10.77,98.42-1.81,95.88,10.66s62.27,9.38,97.53,9.38,73.75-3.31,61.36-12.88,69.86-2.58,105.21-2.58C444.11,445.06,461.79,437.86,427.41,428.72Z" style="fill:#4A0FCA"></path></g><g id="freepik--Floor--inject-35"><line x1="27.57" y1="428.72" x2="472.43" y2="428.72" style="fill:none;stroke:#263238;stroke-linecap:round;stroke-linejoin:round;stroke-width:0.75px"></line></g></svg>