<svg xmlns="http://www.w3.org/2000/svg" viewBox="0 0 500 500"><g id="freepik--Floor--inject-2"><ellipse id="freepik--floor--inject-2" cx="250" cy="350.15" rx="235.59" ry="136.02" style="fill:#f5f5f5"></ellipse></g><g id="freepik--paper-plane--inject-2"><g id="freepik--paper-plane--inject-2"><polygon points="316.54 397.89 385.86 363.23 413.47 375.44 316.54 397.89" style="fill:#FFC100"></polygon><g style="opacity:0.15"><polygon points="316.54 397.89 385.86 363.23 413.47 375.44 316.54 397.89" style="fill:#fff"></polygon></g><polygon points="316.54 397.89 377.61 357.08 366.67 341.36 316.54 397.89" style="fill:#FFC100"></polygon><g style="opacity:0.15"><polygon points="316.54 397.89 377.61 357.08 366.67 341.36 316.54 397.89" style="fill:#fff"></polygon></g><polygon points="377.61 357.08 376.45 367.93 316.54 397.89 377.61 357.08" style="fill:#FFC100"></polygon><g style="opacity:0.2"><polygon points="377.61 357.08 376.45 367.93 316.54 397.89 377.61 357.08"></polygon></g><path d="M387.49,355a.65.65,0,0,1-.45-.17.67.67,0,0,1-.07-1l1.33-1.56a.68.68,0,0,1,1-.08.67.67,0,0,1,.08,1c-.44.53-.89,1.05-1.34,1.58A.71.71,0,0,1,387.49,355Z" style="fill:#e0e0e0"></path><path d="M393,348.16a.68.68,0,0,1-.55-1.1q1.22-1.6,2.37-3.24a.68.68,0,0,1,.95-.17.69.69,0,0,1,.17,1c-.77,1.1-1.57,2.19-2.39,3.28A.69.69,0,0,1,393,348.16Zm6.08-8.89a.65.65,0,0,1-.36-.1.68.68,0,0,1-.23-.94c.7-1.15,1.38-2.3,2-3.47a.68.68,0,0,1,.93-.26.69.69,0,0,1,.27.93c-.66,1.18-1.35,2.35-2.06,3.51A.68.68,0,0,1,399.11,339.27Zm5.11-9.47a.82.82,0,0,1-.29-.07.69.69,0,0,1-.33-.91c.57-1.22,1.12-2.45,1.62-3.67a.69.69,0,0,1,1.27.53c-.51,1.23-1.07,2.49-1.64,3.72A.7.7,0,0,1,404.22,329.8Zm4-10a.52.52,0,0,1-.21,0,.68.68,0,0,1-.45-.86c.42-1.28.8-2.57,1.15-3.84a.67.67,0,0,1,.84-.48.68.68,0,0,1,.48.84c-.35,1.29-.74,2.6-1.16,3.9A.68.68,0,0,1,408.19,319.79Zm2.63-10.44h-.12a.7.7,0,0,1-.56-.8c.24-1.3.45-2.63.62-4a.69.69,0,1,1,1.36.17c-.17,1.35-.38,2.7-.62,4A.69.69,0,0,1,410.82,309.35ZM412,298.66h0a.7.7,0,0,1-.66-.72c0-1,.06-2.09.07-3.14v-.86a.68.68,0,0,1,.68-.69h0a.68.68,0,0,1,.68.67v.88c0,1.07,0,2.14-.07,3.2A.68.68,0,0,1,412,298.66Zm-.3-10.76a.68.68,0,0,1-.68-.62c-.13-1.32-.29-2.66-.48-4a.69.69,0,0,1,.58-.78.68.68,0,0,1,.78.58c.19,1.34.36,2.7.48,4a.68.68,0,0,1-.62.74ZM410,277.27a.69.69,0,0,1-.67-.53c-.29-1.29-.63-2.6-1-3.87a.69.69,0,0,1,.47-.85.68.68,0,0,1,.85.46c.38,1.3.73,2.63,1,3.95a.67.67,0,0,1-.51.82ZM406.78,267a.69.69,0,0,1-.64-.44c-.49-1.22-1-2.46-1.6-3.66a.69.69,0,0,1,.33-.91.68.68,0,0,1,.91.33c.58,1.22,1.13,2.48,1.63,3.73a.7.7,0,0,1-.38.9A.74.74,0,0,1,406.78,267ZM402,257.37a.69.69,0,0,1-.59-.34c-.68-1.14-1.41-2.27-2.15-3.36a.69.69,0,1,1,1.13-.78c.76,1.12,1.5,2.27,2.2,3.44a.69.69,0,0,1-.24.94A.64.64,0,0,1,402,257.37Zm-6.23-8.78a.69.69,0,0,1-.53-.24c-.85-1-1.74-2-2.64-3a.69.69,0,0,1,1-.94c.92,1,1.83,2,2.7,3.06a.68.68,0,0,1-.09,1A.66.66,0,0,1,395.76,248.59Zm-7.49-7.73a.66.66,0,0,1-.46-.17c-1-.88-2-1.75-3.07-2.57a.69.69,0,0,1,.86-1.08c1,.84,2.11,1.72,3.12,2.62a.69.69,0,0,1,.06,1A.66.66,0,0,1,388.27,240.86Zm-8.58-6.5a.7.7,0,0,1-.37-.11c-1.14-.73-2.3-1.41-3.44-2a.68.68,0,0,1,.66-1.2c1.17.64,2.35,1.34,3.52,2.08a.69.69,0,0,1,.21.95A.69.69,0,0,1,379.69,234.36Z" style="fill:#e0e0e0"></path><path d="M370.05,229.54l-.21,0A12.28,12.28,0,0,0,368,229a.69.69,0,0,1,.2-1.36,13.92,13.92,0,0,1,2.11.52.68.68,0,0,1,.44.86A.67.67,0,0,1,370.05,229.54Z" style="fill:#e0e0e0"></path></g></g><g id="freepik--Icons--inject-2"><g id="freepik--Like--inject-2"><path d="M447.59,190.9l-3.35,19.86,6.58,1.11L454.16,192Zm-5.6-7.74c-.23-1,.9-5.33,1-6.12s-3.56-1.71-5.23,1a11.79,11.79,0,0,0-1.92,7.79l-9.12-1.53a2.83,2.83,0,0,0-3.2,2.4,3.13,3.13,0,0,0,1,2.91,2.58,2.58,0,0,0-2.25,2.26,2.91,2.91,0,0,0,1.75,3.14,3.51,3.51,0,0,0-1,2.07c-.16,1,.84,2.88,2.12,3.09a5.62,5.62,0,0,0-.75,2,3.2,3.2,0,0,0,2.88,3.42l15.09,2.54L445.33,191S442.22,184.21,442,183.16Z" style="fill:#e0e0e0"></path></g><g id="freepik--like--inject-2"><path d="M222.65,98.36l3.53,21,6.95-1.17-3.54-21Zm9.32-1,3,18,15.93-2.69a3.38,3.38,0,0,0,3-3.61,6,6,0,0,0-.79-2.12c1.36-.23,2.41-2.23,2.24-3.27a3.74,3.74,0,0,0-1-2.18,3.09,3.09,0,0,0,1.85-3.32,2.72,2.72,0,0,0-2.38-2.38A3.31,3.31,0,0,0,255,92.7a3,3,0,0,0-3.37-2.53L242,91.79a12.44,12.44,0,0,0-2-8.23c-1.76-2.81-5.67-1.83-5.53-1s1.33,5.35,1.09,6.46S232,97.33,232,97.33Z" style="fill:#f0f0f0"></path></g><g id="freepik--like--inject-2"><path d="M431.71,334.38a.44.44,0,0,1-.42-.36l-2.41-14.36a.41.41,0,0,1,.07-.32.43.43,0,0,1,.28-.17l4.75-.8a.42.42,0,0,1,.49.35l2.42,14.36a.45.45,0,0,1-.07.32.42.42,0,0,1-.28.17l-4.75.8Zm-1.92-14.44,2.28,13.52,3.91-.66-2.28-13.52Zm8,11.71a.42.42,0,0,1-.42-.35L435.26,319a.51.51,0,0,1,0-.25c.9-2,2.28-5.08,2.39-5.61a16.94,16.94,0,0,0-.57-3.45c-.09-.37-.15-.66-.18-.81s0-.62.73-.9a3.26,3.26,0,0,1,3.84,1.29,8.89,8.89,0,0,1,1.49,5.35l6.06-1a2.49,2.49,0,0,1,2.8,2.09,2.61,2.61,0,0,1-.41,2,2.32,2.32,0,0,1,1.3,1.79,2.58,2.58,0,0,1-1,2.47,3.45,3.45,0,0,1,.46,1.29,2.84,2.84,0,0,1-1.34,2.54,4.64,4.64,0,0,1,.35,1.15,2.73,2.73,0,0,1-2.43,3l-10.91,1.83Zm-1.64-12.71,2,11.79L448.6,329a1.91,1.91,0,0,0,1.73-2,4,4,0,0,0-.47-1.29.41.41,0,0,1,0-.4.43.43,0,0,1,.32-.25,1.91,1.91,0,0,0,1.18-1.75,2.11,2.11,0,0,0-.55-1.24.46.46,0,0,1-.14-.4.45.45,0,0,1,.26-.32,1.67,1.67,0,0,0,1-1.8,1.42,1.42,0,0,0-1.24-1.28.43.43,0,0,1-.38-.29.44.44,0,0,1,.13-.46,1.83,1.83,0,0,0,.6-1.71,1.63,1.63,0,0,0-1.82-1.39l-6.59,1.11a.39.39,0,0,1-.36-.11.42.42,0,0,1-.14-.35,8.1,8.1,0,0,0-1.33-5.37,2.33,2.33,0,0,0-1.83-1.07,2,2,0,0,0-1.14.21c0,.15.08.37.14.64a13.77,13.77,0,0,1,.58,3.83C438.35,314,436.52,318.07,436.12,318.94Z" style="fill:#e0e0e0"></path></g><g id="freepik--Heart--inject-2"><path d="M419.51,239.6a.4.4,0,0,1-.31-.13l-1.88-2c-2.56-2.68-5.37-6.71-4.19-10.61a5.17,5.17,0,0,1,6.44-3.46,5.21,5.21,0,0,1,3.54,3.72,5.17,5.17,0,0,1,8.46,5.3c-1.16,3.82-5.7,5.66-9.3,6.52l-2.66.63Zm-1.43-15.55a4.3,4.3,0,0,0-2,.52,4.34,4.34,0,0,0-2.1,2.56c-1.05,3.51,1.59,7.25,4,9.78l1.72,1.8,2.42-.58c3.39-.81,7.64-2.5,8.68-5.94a4.32,4.32,0,0,0-7.59-3.85.42.42,0,0,1-.46.15.42.42,0,0,1-.3-.38,4.35,4.35,0,0,0-3.07-3.87A4.17,4.17,0,0,0,418.08,224.05Z" style="fill:#e0e0e0"></path></g><g id="freepik--heart--inject-2"><path d="M233,167h0l-4-.4c-5.39-.53-12.32-2.29-14.73-7.69a7.44,7.44,0,0,1,3.76-9.81,7.49,7.49,0,0,1,7.61.94,7.43,7.43,0,0,1,14.2-2.53c2.36,5.3-.92,11.65-4.08,16l-2.36,3.27A.44.44,0,0,1,233,167Zm-12-17.68a6.57,6.57,0,0,0-6,9.24c2.24,5,8.87,6.68,14,7.19l3.76.37,2.21-3.07c3-4.21,6.2-10.26,4-15.19a6.58,6.58,0,0,0-12.57,3.1.43.43,0,0,1-.73.33A6.57,6.57,0,0,0,221,149.35Z" style="fill:#e0e0e0"></path></g><g id="freepik--heart--inject-2"><path d="M452,280.09l-4.19-.65c-5.52-.86-12.54-3.06-14.67-8.67a7.37,7.37,0,0,1,12.44-7.47,7.37,7.37,0,0,1,14.26-2.68c2.09,5.51-1.66,11.84-5.17,16.17Z" style="fill:#f0f0f0"></path></g><g id="freepik--Contacts--inject-2"><path d="M339.87,306.92c3.86-2.23,7-8.86,7-14.8s-3.12-8.95-7-6.72-7,8.85-7,14.79S336,309.15,339.87,306.92Zm11.32,2.65c-.3-2.85-2-4.11-4-3l-14.69,8.48c-2,1.15-3.67,4.35-4,7.55l-.68,7.18c-.16,1.67.63,2.64,1.67,2l18.55-10.71.31-3.23a15.64,15.64,0,0,1,2.87-7.68Z" style="fill:#e0e0e0"></path><path d="M360.91,301.79c3.86-2.22,7-8.85,7-14.79s-3.13-8.95-7-6.73-7,8.86-7,14.8S357.05,304,360.91,301.79Zm12,9-.69-6.38c-.3-2.84-2-4.09-4-2.95L353.56,310c-2,1.15-3.67,4.35-4,7.55l-.68,7.17c-.16,1.68.63,2.64,1.67,2l20.68-11.93A4.54,4.54,0,0,0,372.92,310.82Z" style="fill:#f0f0f0"></path></g></g><g id="freepik--Shadow--inject-2"><g id="freepik--shadow--inject-2"><ellipse cx="113.88" cy="391.01" rx="70.17" ry="40.51" style="fill:#ebebeb"></ellipse></g></g><g id="freepik--subscribe-button--inject-2"><g id="freepik--subscribe-button--inject-2"><path d="M339.47,131.74c-4-2.32-9.56-2-15.68,1.55L111.54,255.83c-12.25,7.08-22.18,24.28-22.18,38.42v32.87c0,7.06,2.48,12,6.49,14.35,3.72,2.15,9.75,5.55,13.45,7.71,4,2.34,9.57,2,15.71-1.53L337.27,225.11c12.25-7.08,22.18-24.28,22.18-38.42V153.82c0-7.07-2.49-12-6.5-14.35C349.23,137.32,343.19,133.89,339.47,131.74Z" style="fill:#FFC100"></path><path d="M125,263.56,337.27,141c12.25-7.07,22.18-1.34,22.18,12.8v32.87c0,14.14-9.93,31.34-22.18,38.42L125,347.65c-12.24,7.07-22.17,1.34-22.17-12.8V302C102.83,287.83,112.77,270.63,125,263.56Z" style="fill:#FFC100"></path><g style="opacity:0.15"><path d="M125,263.56,337.27,141c12.25-7.07,22.18-1.34,22.18,12.8v32.87c0,14.14-9.93,31.34-22.18,38.42L125,347.65c-12.24,7.07-22.17,1.34-22.17-12.8V302C102.83,287.83,112.77,270.63,125,263.56Z" style="fill:#fff"></path></g><path d="M109.3,349.18c-3.71-2.16-9.73-5.56-13.45-7.71-4-2.32-6.49-7.29-6.49-14.35V294.25a43.45,43.45,0,0,1,4.88-18.84l13.45,7.77A43.58,43.58,0,0,0,102.84,302v32.87C102.84,341.89,105.3,346.85,109.3,349.18Z" style="fill:#FFC100"></path><g style="opacity:0.30000000000000004"><path d="M109.3,349.18c-3.71-2.16-9.73-5.56-13.45-7.71-4-2.32-6.49-7.29-6.49-14.35V294.25a43.45,43.45,0,0,1,4.88-18.84l13.45,7.77A43.58,43.58,0,0,0,102.84,302v32.87C102.84,341.89,105.3,346.85,109.3,349.18Z"></path></g><path d="M141.68,277.52c0,1.67-1.25,6.11-2.22,6.67-.52.3-1.77-.53-4.47,1-3.14,1.82-3.74,4.21-3.74,5.64,0,3.41,2,3.51,4.31,3.59,3.3.2,7.33.41,7.33,8.85,0,10.1-4.71,16.3-9.1,18.83-6.13,3.54-9.47,2.12-9.47,0,0-1.92,1.65-6.47,2.5-7s2.7,1.29,5.92-.57a7.26,7.26,0,0,0,3.78-6.52c0-3.72-3.18-2.94-6.2-3.37-2.78-.44-5.44-1.88-5.44-9.32,0-8.93,4.84-15.32,9.55-18C138.7,274.9,141.68,275.47,141.68,277.52Z" style="fill:#fafafa"></path><path d="M170,259.19v27c0,9.55-4.31,17.5-11.68,21.75s-11.68,1.29-11.68-8.26v-27c0-1.3.73-2.4,2.42-3.37l1.37-.8c1.69-1,2.41-.71,2.41.59v26.42c0,4.34,2.22,6.22,5.48,4.34s5.52-6.35,5.52-10.69V262.75c0-1.31.72-2.41,2.42-3.38l1.32-.77C169.27,257.62,170,257.89,170,259.19Z" style="fill:#fafafa"></path><path d="M194.92,253.91a20.44,20.44,0,0,1-4.35,11.94l0,.22c3.22-.87,5.44,2.26,5.44,7,0,8-3.27,14.47-10.07,18.4l-8.54,4.93c-1.13.65-1.61.19-1.61-1.55V256.44c0-1.74.48-2.76,1.61-3.41l8-4.61C192.22,244.49,194.92,247.4,194.92,253.91ZM182,258.44v9.24l2.78-1.61a8,8,0,0,0,3.75-6.81c0-3-1.21-3.89-3.67-2.47Zm0,17.36v9.86l3.95-2.28a7.92,7.92,0,0,0,3.7-7.16c0-3.23-1.57-3.93-4.35-2.33Z" style="fill:#fafafa"></path><path d="M215.58,234.85c0,1.68-1.25,6.12-2.22,6.68-.52.3-1.77-.53-4.47,1-3.14,1.81-3.74,4.21-3.74,5.63,0,3.41,2,3.51,4.31,3.59,3.3.2,7.33.42,7.33,8.85,0,10.11-4.72,16.3-9.11,18.84-6.12,3.53-9.46,2.11-9.46,0,0-1.92,1.65-6.47,2.5-7s2.69,1.29,5.92-.57a7.27,7.27,0,0,0,3.78-6.53c0-3.72-3.18-2.93-6.2-3.36-2.78-.44-5.44-1.88-5.44-9.33,0-8.93,4.84-15.31,9.55-18C212.6,232.23,215.58,232.81,215.58,234.85Z" style="fill:#fafafa"></path><path d="M241.55,219.86c0,1.73-1.61,6.75-2.62,7.34-.48.27-2.09-.78-5.92,1.43-4.75,2.74-7,8.67-7,18s2.25,12.84,6.88,10.17c3.83-2.21,6-5.95,6.61-6.3,1.29-.74,2.37,3,2.37,4,0,3.73-5.75,8.54-9,10.4-9,5.21-13.25.64-13.25-14.67,0-14.76,4.51-24.68,13.46-29.84C236.68,218.33,241.55,217.25,241.55,219.86Z" style="fill:#fafafa"></path><path d="M265.47,213.86a19.69,19.69,0,0,1-4.71,12.58v.25c1,0,2.22,1.75,2.9,4l3.55,11.59a4,4,0,0,1,.2,1.06c0,.75-.77,1.68-2.42,2.64l-1.65,1c-1.17.68-2.1.9-2.34,0l-3.18-10.26c-.8-2-1.45-2.88-4.07-1.37l-1.57.91v15.13c0,1.3-.72,2.4-2.41,3.38l-1.37.79c-1.69,1-2.42.71-2.42-.59V215.94c0-1.74.49-2.76,1.61-3.42l7.86-4.53C262.41,204,265.47,206.42,265.47,213.86ZM252.18,218v10l3.83-2.21c1.65-1,3.1-4.14,3.1-7.12s-1.29-4-3.38-2.76Z" style="fill:#fafafa"></path><path d="M277,197.44v39.68c0,1.3-.73,2.47-2.42,3.44l-1.41.82c-1.69,1-2.41.65-2.41-.66V201c0-1.3.72-2.47,2.41-3.44l1.41-.82C276.22,195.81,277,196.13,277,197.44Z" style="fill:#fafafa"></path><path d="M301.8,192.2a20.37,20.37,0,0,1-4.35,11.94l0,.23c3.22-.87,5.44,2.25,5.44,7,0,8-3.27,14.47-10.07,18.4l-8.54,4.93c-1.13.65-1.61.18-1.61-1.56V194.73c0-1.74.48-2.76,1.61-3.41l8-4.6C299.1,182.79,301.8,185.69,301.8,192.2Zm-12.89,4.53V206l2.78-1.61a8,8,0,0,0,3.75-6.81c0-3-1.21-3.89-3.67-2.47Zm0,17.36V224l3.95-2.28a7.91,7.91,0,0,0,3.7-7.16c0-3.22-1.57-3.93-4.35-2.32Z" style="fill:#fafafa"></path><path d="M324.55,171.19v1.92c0,2.17-.36,3.31-1.21,3.8l-10.15,5.86v9l9.07-5.23c.84-.49,1.2.23,1.2,2.4v1.93c0,2.17-.36,3.31-1.2,3.79l-9.07,5.24v10l10.19-5.88c.85-.49,1.21.23,1.21,2.4v1.92c0,2.17-.36,3.31-1.21,3.8l-14.78,8.54c-1.12.65-1.61.18-1.61-1.56V180.71c0-1.74.49-2.76,1.61-3.41l14.74-8.51C324.19,168.3,324.55,169,324.55,171.19Z" style="fill:#fafafa"></path><path d="M335.7,197.49v5.71c0,1.3-.72,2.4-2.41,3.38l-1.29.74c-1.69,1-2.42.71-2.42-.59V201c0-1.3.73-2.41,2.42-3.38l1.29-.75C335,195.93,335.7,196.19,335.7,197.49Zm1.25-35c-.68,9.08-1.33,18.13-2,27.21a3.4,3.4,0,0,1-2.05,3.17l-.45.26c-1.65.95-2.05.5-2.05-.8v-25.8c0-1.3.72-2.4,2.42-3.38l1.73-1C336.11,161.3,337,161.43,337,162.54Z" style="fill:#fafafa"></path></g></g><g id="freepik--Bell--inject-2"><g id="freepik--bell--inject-2"><path d="M390.76,192.24,380.07,186h0L380,186v0c-5.2-2.94-12.34-2.49-20.23,2.06-15.9,9.18-28.78,31.5-28.78,49.85,0,9.16,3.21,15.6,8.4,18.62h0l10.83,6.21c5.24,3.33,12.64,3,20.85-1.7,15.89-9.18,28.78-31.5,28.78-49.85C399.82,201.66,396.33,195.08,390.76,192.24Z" style="fill:#37474f"></path><path d="M332,228.23a46.59,46.59,0,0,0-1.08,9.67c0,9.16,3.21,15.6,8.4,18.62h0l10.86,6.24,2.54-4.26,7.14-14.18Z" style="fill:#263238"></path><path d="M371,194.58c-15.9,9.18-28.78,31.5-28.78,49.85s12.88,25.8,28.78,16.62,28.78-31.5,28.78-49.85S386.93,185.4,371,194.58Z" style="fill:#455a64"></path><path d="M382.41,220.14v-7.06c0-8-4.89-11.74-10.93-8.26h0c-6,3.49-10.92,12.84-10.92,20.88V232a25,25,0,0,1-3.68,12.31l0,0a6.85,6.85,0,0,0-.89,3.22h0c0,2,1.23,3,2.75,2.08l25.52-14.73a6.59,6.59,0,0,0,2.75-5.26h0a2.59,2.59,0,0,0-.8-2.13l0,0C383.89,226.48,382.41,223.93,382.41,220.14Z" style="fill:#fff"></path><path d="M376.73,241.43c0,3.86-2.35,8.34-5.25,10s-5.24-.11-5.24-4Z" style="fill:#fff"></path></g></g><g id="freepik--Cursor--inject-2"><g id="freepik--cursor--inject-2"><path d="M293,290.87a4.88,4.88,0,0,0-1.9-2.21h0l-4.74-2.74h0c-2.06-1.18-4.58,0-5.91.81L277.48,285h0c-3.59-2.16-8.57,2.37-9.69,3.46l-1.27-.74h0c-1.69-1-4-.37-6,.65V271.19a4.33,4.33,0,0,0-1.7-3.88h0l-.05,0-.08,0L254,264.55h0c-1.1-.61-2.6-.51-4.26.44a13.43,13.43,0,0,0-6.08,10.53v52.73l-.72-.34c-4.16-2.93-8.52-4.67-12.37-4a13.09,13.09,0,0,0-7.9,5.46c-2,3.54,1.3,5.77,5.57,10.65s8,10.67,11.83,14.27,6.65,4.54,6.65,4.54v6.89l4.7,2.71,35.7-20.61v-6.9s4.44-17.67,5.85-25.05S295.69,296.53,293,290.87Z" style="fill:#FFC100"></path><g style="opacity:0.85"><path d="M293,290.87a4.88,4.88,0,0,0-1.9-2.21h0l-4.74-2.74h0c-2.06-1.18-4.58,0-5.91.81L277.48,285h0c-3.59-2.16-8.57,2.37-9.69,3.46l-1.27-.74h0c-1.69-1-4-.37-6,.65V271.19a4.33,4.33,0,0,0-1.7-3.88h0l-.05,0-.08,0L254,264.55h0c-1.1-.61-2.6-.51-4.26.44a13.43,13.43,0,0,0-6.08,10.53v52.73l-.72-.34c-4.16-2.93-8.52-4.67-12.37-4a13.09,13.09,0,0,0-7.9,5.46c-2,3.54,1.3,5.77,5.57,10.65s8,10.67,11.83,14.27,6.65,4.54,6.65,4.54v6.89l4.7,2.71,35.7-20.61v-6.9s4.44-17.67,5.85-25.05S295.69,296.53,293,290.87Z" style="fill:#fff"></path></g><g style="opacity:0.2"><path d="M260.5,288.46v5.84h0a26.33,26.33,0,0,1,4.59-3.14Zm21.57-2.53a10.3,10.3,0,0,0-1.63.81l1.51.89a5.41,5.41,0,0,1,2.25,2.46,10.88,10.88,0,0,1,2.7-1.52ZM271,286a20.28,20.28,0,0,0-3.17,2.51l3.09,1.79.18.1a3.48,3.48,0,0,1,1.2,1.05h0a19.23,19.23,0,0,1,3.29-2.67ZM243.65,275.5v52.73a29.87,29.87,0,0,1,4.69,2.89V278.21Zm16.83,12.95h0v0ZM244.75,357c-3.86-3.6-7.59-9.43-11.82-14.27-4-4.59-7.19-6.83-5.88-10l-4.7-2.71c-1.31,3.19,1.86,5.44,5.88,10,4.24,4.83,8,10.66,11.82,14.27s6.66,4.53,6.66,4.53v6.89l4.7,2.72v-6.9S248.61,360.6,244.75,357Z" style="fill:#FFC100"></path></g><path d="M251.41,368.43v-6.89s-2.8-.94-6.66-4.54-7.59-9.43-11.82-14.27-7.59-7.11-5.58-10.65a13.09,13.09,0,0,1,7.91-5.46c4.07-.73,8.72,1.26,13.08,4.5V278.21a13.46,13.46,0,0,1,6.08-10.53h0c3.36-1.93,6.08-.36,6.08,3.51V294.3s8.37-7.44,11.76-2.87c0,0,8.22-8.62,11.94-1.34,0,0,6-4.88,8.76.78s1.42,17.62,0,25-5.85,25.05-5.85,25.05v6.9Z" style="fill:#FFC100"></path><g style="opacity:0.7000000000000001"><path d="M251.41,368.43v-6.89s-2.8-.94-6.66-4.54-7.59-9.43-11.82-14.27-7.59-7.11-5.58-10.65a13.09,13.09,0,0,1,7.91-5.46c4.07-.73,8.72,1.26,13.08,4.5V278.21a13.46,13.46,0,0,1,6.08-10.53h0c3.36-1.93,6.08-.36,6.08,3.51V294.3s8.37-7.44,11.76-2.87c0,0,8.22-8.62,11.94-1.34,0,0,6-4.88,8.76.78s1.42,17.62,0,25-5.85,25.05-5.85,25.05v6.9Z" style="fill:#fff"></path></g><g style="opacity:0.30000000000000004"><path d="M232.93,342.73c-4-4.59-7.19-6.83-5.88-10l-4.7-2.71c-1.31,3.19,1.86,5.44,5.88,10,4.24,4.83,8,10.66,11.82,14.27s6.66,4.53,6.66,4.53v6.89l4.7,2.72v-6.9s-2.8-.94-6.66-4.54S237.16,347.57,232.93,342.73Z" style="fill:#FFC100"></path><polygon points="260.48 288.45 260.5 288.46 260.5 288.41 260.48 288.45" style="fill:#FFC100"></polygon><path d="M248.34,278.21l-4.69-2.71v52.73a29.87,29.87,0,0,1,4.69,2.89Z" style="fill:#FFC100"></path><path d="M271,286a20.28,20.28,0,0,0-3.17,2.51l3.09,1.79.18.1a3.48,3.48,0,0,1,1.2,1.05v9.64s1.07-9.93,3.3-12.32h0Z" style="fill:#FFC100"></path><path d="M286.9,288.57l-4.83-2.64a10.3,10.3,0,0,0-1.63.81l1.51.89a5.41,5.41,0,0,1,2.25,2.46l0,0,0,0v9.68s.59-9.74,2.68-11.19Z" style="fill:#FFC100"></path><path d="M265.1,291.15l-4.6-2.69v15.77s.73-10.57,4.6-13.08Z" style="fill:#FFC100"></path></g></g></g><g id="freepik--speech-bubble--inject-2"><g id="freepik--message-icon--inject-2"><path d="M291.78,140.41,287,137.67a.48.48,0,0,1-.22-.2l-.88-1.53,2.82-1.63-.08.25Z" style="fill:#e0e0e0"></path><path d="M272.08,133.81a5.07,5.07,0,0,0,2.3,4l1.87,1.08a5.14,5.14,0,0,0,4.21.2c-1.08.41-1.91-.21-1.91-1.52V88.71a4.75,4.75,0,0,1,.67-2.27l-6.47-3.74a4.82,4.82,0,0,0-.67,2.27Z" style="fill:#e0e0e0"></path><path d="M288.89,134.23a.69.69,0,0,0-.4-.31l-.16,0a.63.63,0,0,0-.33.09l-7.47,4.32a2.1,2.1,0,0,1-.3.15h0l-.08,0a1.22,1.22,0,0,1-.35.06c-.54,0-.62-.62-.62-1V88.71a4.53,4.53,0,0,1,2-3.43l50.64-29.23a1.44,1.44,0,0,1,.7-.23c.11,0,.42,0,.55.51a2,2,0,0,1,.06.48v48.84c0,1.42,0,2.27-1.75,3.26l-35.72,20.65a.67.67,0,0,0-.29.35L292,139.62Z" style="fill:#fafafa"></path><path d="M332.43,56.49a1.22,1.22,0,0,1,0,.32v48.84c0,1.34,0,1.89-1.43,2.7L295.33,129a1.26,1.26,0,0,0-.58.7l-2.9,8.36-2.4-4.16a1.28,1.28,0,0,0-.79-.61,1.24,1.24,0,0,0-.33,0,1.34,1.34,0,0,0-.65.17l-7.49,4.34-.18.08H280l-.07,0a1.22,1.22,0,0,1,0-.33V88.71a3.47,3.47,0,0,1,.52-1.64,3.33,3.33,0,0,1,1.12-1.22l50.64-29.23a1,1,0,0,1,.3-.13m.08-1.32a2,2,0,0,0-1,.32L280.84,84.72a4.62,4.62,0,0,0-1.61,1.72,4.69,4.69,0,0,0-.68,2.27v48.84c0,1,.52,1.64,1.27,1.64a1.6,1.6,0,0,0,.55-.1l.08,0a2,2,0,0,0,.41-.2l7.47-4.32,3.28,5.69a.49.49,0,0,0,.43.25.48.48,0,0,0,.46-.33l3.48-10,35.71-20.65c2.07-1.17,2.08-2.35,2.08-3.83V56.81a2.51,2.51,0,0,0-.08-.65,1.2,1.2,0,0,0-1.18-1Z" style="fill:#e0e0e0"></path><path d="M333.7,56.16c-.27-1-1.16-1.28-2.22-.67L280.85,84.73a4.54,4.54,0,0,0-1.62,1.71l-6.47-3.73A4.72,4.72,0,0,1,274.38,81L325,51.75a5.17,5.17,0,0,1,4.6,0l1.88,1.09A5.08,5.08,0,0,1,333.7,56.16Z" style="fill:#f0f0f0"></path><path d="M285.87,93.38a1.57,1.57,0,0,1,.72-1.24l36.52-21.08a1.57,1.57,0,0,1,1.43,0l.8.46a1.57,1.57,0,0,1,.72,1.24v28a1.6,1.6,0,0,1-.72,1.24l-36.52,21.08a1.57,1.57,0,0,1-1.43,0l-.8-.46a1.6,1.6,0,0,1-.72-1.24Z" style="fill:#FFC100"></path><g style="opacity:0.24"><path d="M285.87,93.38a1.57,1.57,0,0,1,.72-1.24l36.52-21.08a1.57,1.57,0,0,1,1.43,0l.8.46a1.57,1.57,0,0,1,.72,1.24v28a1.6,1.6,0,0,1-.72,1.24l-36.52,21.08a1.57,1.57,0,0,1-1.43,0l-.8-.46a1.6,1.6,0,0,1-.72-1.24Z" style="fill:#fff"></path></g><path d="M289.22,94.49l-3.14-1.81a1.42,1.42,0,0,0-.21.7v28a1.6,1.6,0,0,0,.72,1.24l.8.46a1.57,1.57,0,0,0,1.43,0l.4-.23Z" style="fill:#FFC100"></path><g style="opacity:0.30000000000000004"><path d="M289.22,94.49l-3.14-1.81a1.42,1.42,0,0,0-.21.7v28a1.6,1.6,0,0,0,.72,1.24l.8.46a1.57,1.57,0,0,0,1.43,0l.4-.23Z"></path></g><path d="M326.06,72.76v28a1.45,1.45,0,0,1-.23.73,1.52,1.52,0,0,1-.41.46l0,0-.05,0-36.52,21.08h0a.52.52,0,0,1-.49,0,.48.48,0,0,1-.22-.47v-28a.62.62,0,0,1,.8-.63l15.36,3.65,2,.48a1.32,1.32,0,0,0,1.28-.49l2.33-3.24L325.58,72.6C325.84,72.23,326.06,72.3,326.06,72.76Z" style="fill:#FFC100"></path><path d="M325.34,102l.05,0,0,0a1.65,1.65,0,0,0,.64-1.17l-16.17-6.33,10.83,10.22Z" style="fill:#FFC100"></path><g style="opacity:0.2"><path d="M325.34,102l.05,0,0,0a1.65,1.65,0,0,0,.64-1.17v-.66l-16.17-5.67,10.83,10.22Z"></path></g><path d="M288.11,122.66a.48.48,0,0,0,.22.47.52.52,0,0,0,.49,0h0l12.58-7.26,2.87-18.12L288.11,122.2Z" style="fill:#FFC100"></path><g style="opacity:0.2"><path d="M288.11,122.66a.48.48,0,0,0,.22.47.52.52,0,0,0,.49,0h0l12.58-7.26,2.87-18.12-16.16,22.79Z"></path></g><path d="M325.83,101.48a1.52,1.52,0,0,1-.41.46l0,0-36.57,21.11h0a.52.52,0,0,1-.49,0l17.49-27.92a2.76,2.76,0,0,1,3.44-1Z" style="fill:#FFC100"></path><g style="opacity:0.30000000000000004"><path d="M288.4,94,305,101.33a2.7,2.7,0,0,0,3.4-1l17.45-27.92Z"></path></g><path d="M288.4,94l16.74,6.25a2.74,2.74,0,0,0,3.23-1.06l17.5-26.82Z" style="fill:#FFC100"></path></g></g><g id="freepik--Megaphone--inject-2"><g id="freepik--megaphone--inject-2"><g id="freepik--megaphone--inject-2"><path d="M358.68,90.49A10.67,10.67,0,1,0,369,79.5,10.68,10.68,0,0,0,358.68,90.49Z" style="fill:#455a64"></path><path d="M364.06,91.68l12.24,6.59a10.67,10.67,0,0,1-16-13.8C359.46,87.22,360.12,89.56,364.06,91.68Z" style="fill:#37474f"></path><path d="M371.67,97.47,379,93a109.7,109.7,0,0,0-2.05,31l-2.92,1.8C372.09,120.11,371.35,108.54,371.67,97.47Z" style="fill:#37474f"></path><path d="M362.63,97.67l3.25,3.9.43,11.67a14.9,14.9,0,0,0,7.69,12.5h0c-2-6.71-2.53-18.2-2.33-28.27Z" style="fill:#455a64"></path><path d="M372.91,110.68l-.21.13a1.42,1.42,0,0,1-1.27,0l-1.73-.93c-.36-.2-.64,0-.62.38v.25a1.42,1.42,0,0,0,.67,1.08l1.76,1a1.37,1.37,0,0,0,1.26,0l.2-.13a1.43,1.43,0,0,0,.6-1.12V111C373.55,110.62,373.26,110.47,372.91,110.68Z" style="fill:#FFC100"></path><path d="M373.29,114.49l-.21.14a1.42,1.42,0,0,1-1.27,0l-1.73-.94c-.36-.19-.63,0-.62.39v.25a1.44,1.44,0,0,0,.67,1.08l1.76,1a1.37,1.37,0,0,0,1.26-.05l.2-.13a1.44,1.44,0,0,0,.6-1.13v-.25C373.93,114.44,373.64,114.28,373.29,114.49Z" style="fill:#FFC100"></path><path d="M373.68,118.31l-.22.13a1.39,1.39,0,0,1-1.27,0l-1.73-.93c-.36-.19-.63,0-.62.39v.24a1.39,1.39,0,0,0,.66,1.08l1.76.95a1.37,1.37,0,0,0,1.26,0l.2-.13a1.44,1.44,0,0,0,.6-1.13v-.25C374.31,118.25,374,118.1,373.68,118.31Z" style="fill:#FFC100"></path><path d="M383.06,83.34h0c-1.45-.78-3.37-.69-5.48.42-.22.11-.44.24-.67.38s-.52.34-.78.53a14.56,14.56,0,0,0-1.24,1A17.32,17.32,0,0,0,372.81,88a20.87,20.87,0,0,0-3.71,7.6,14.87,14.87,0,0,0-.46,4c.08,2.71,1.07,4.61,2.61,5.5l-5.47-2.93h0a7,7,0,0,1-3.35-5.9,14.73,14.73,0,0,1,.42-3.79,21,21,0,0,1,3.75-7.78,18,18,0,0,1,2.08-2.26,14.56,14.56,0,0,1,1.24-1c.26-.19.52-.36.79-.53s.45-.26.67-.37a6.9,6.9,0,0,1,6.09-.08h0l.15.08.19.1Z" style="fill:#FFC100"></path><g style="opacity:0.1"><path d="M365.78,102.09h0a7,7,0,0,1-3.35-5.9,14.73,14.73,0,0,1,.42-3.79l6.24,3.16a14.87,14.87,0,0,0-.46,4c.08,2.71,1.07,4.61,2.61,5.5Z"></path></g><path d="M385.79,88.92c.17,5.57-3.53,12.45-8.27,15.37-2.38,1.48-4.57,1.67-6.18.78l-.09,0c-1.54-.89-2.53-2.79-2.61-5.5-.17-5.57,3.54-12.45,8.27-15.38,2.37-1.46,4.54-1.66,6.15-.8S385.71,86.13,385.79,88.92Z" style="fill:#FFC100"></path><g style="opacity:0.2"><path d="M385.79,88.92c.17,5.57-3.53,12.45-8.27,15.37-2.38,1.48-4.57,1.67-6.18.78l-.09,0c-1.54-.89-2.53-2.79-2.61-5.5-.17-5.57,3.54-12.45,8.27-15.38,2.37-1.46,4.54-1.66,6.15-.8S385.71,86.13,385.79,88.92Z"></path></g><path d="M412.51,86.68s-8.67,4.78-15.8,18a58.6,58.6,0,0,0-3.35,7.37c-3.5,9.37-3,15.75-3,15.75-2.82-6.35-6.28-12.91-11.87-17.84a83.63,83.63,0,0,0-6.86-5.4h0c-1.46-.8-2.36-2.59-2.43-5.09a15.12,15.12,0,0,1,.83-5.16,20.45,20.45,0,0,1,1.4-3.24,17.25,17.25,0,0,1,5.78-6.48c2.13-1.32,4.12-1.56,5.59-.77h0a82.66,82.66,0,0,0,8.28,2.76C398.28,88.55,405.66,87.83,412.51,86.68Z" style="fill:#FFC100"></path><g style="opacity:0.6000000000000001"><path d="M412.51,86.68s-8.67,4.78-15.8,18a58.6,58.6,0,0,0-3.35,7.37c-3.5,9.37-3,15.75-3,15.75-2.82-6.35-6.28-12.91-11.87-17.84a83.63,83.63,0,0,0-6.86-5.4h0c-1.46-.8-2.36-2.59-2.43-5.09a15.12,15.12,0,0,1,.83-5.16,20.45,20.45,0,0,1,1.4-3.24,17.25,17.25,0,0,1,5.78-6.48c2.13-1.32,4.12-1.56,5.59-.77h0a82.66,82.66,0,0,0,8.28,2.76C398.28,88.55,405.66,87.83,412.51,86.68Z" style="fill:#fff"></path></g><g style="opacity:0.1"><path d="M393.36,112.08c-3.5,9.37-3,15.75-3,15.75-2.82-6.35-6.28-12.91-11.87-17.84a83.63,83.63,0,0,0-6.86-5.4h0c-1.46-.8-2.36-2.59-2.43-5.09a15.12,15.12,0,0,1,.83-5.16C376.8,97.48,387.78,103.32,393.36,112.08Z"></path></g><path d="M429.47,98.75a41,41,0,0,1-4.23,18.16h0c-3.59,7.63-9.14,14.5-15.47,18.42-11.27,7-20.73,1.87-21.12-11.38a35.22,35.22,0,0,1,1.09-9.42,49.39,49.39,0,0,1,11.95-21.7c.78-.82,1.6-1.6,2.43-2.33.35-.3.7-.6,1.06-.88h0q.75-.61,1.53-1.17c.54-.38,1.08-.74,1.63-1.08C419.61,80.42,429.07,85.5,429.47,98.75Z" style="fill:#FFC100"></path><g style="opacity:0.15"><path d="M429.47,98.75a41,41,0,0,1-4.23,18.16h0c-3.59,7.63-9.14,14.5-15.47,18.42-11.27,7-20.73,1.87-21.12-11.38a35.22,35.22,0,0,1,1.09-9.42,49.39,49.39,0,0,1,11.95-21.7c.78-.82,1.6-1.6,2.43-2.33.35-.3.7-.6,1.06-.88h0q.75-.61,1.53-1.17c.54-.38,1.08-.74,1.63-1.08C419.61,80.42,429.07,85.5,429.47,98.75Z" style="fill:#fff"></path></g><g style="opacity:0.1"><path d="M425.24,116.92c-3.59,7.63-9.14,14.5-15.47,18.42-11.27,7-20.73,1.87-21.12-11.38a35.22,35.22,0,0,1,1.09-9.42h0c.83,1.69,3.69,4,4.89,2.3a31.55,31.55,0,0,0-1,8.36c.12,3.81,1.06,6.85,2.72,8.81a6.82,6.82,0,0,0,5.66,2.42,15.9,15.9,0,0,0,7.57-2.64c5.39-3.32,10.26-9.16,13.63-15.7C423.25,118.09,424,118.67,425.24,116.92Z"></path></g><path d="M428.07,99.53c.17,5.85-1.68,12.51-4.82,18.56-3.37,6.54-8.24,12.38-13.63,15.7a15.9,15.9,0,0,1-7.57,2.64,6.82,6.82,0,0,1-5.66-2.42c-1.66-2-2.6-5-2.72-8.81a31.55,31.55,0,0,1,1-8.36c.26-1.09.57-2.18.93-3.26a46.86,46.86,0,0,1,2.28-5.64l.56-1.12c.32-.62.65-1.24,1-1.85a46.66,46.66,0,0,1,3.93-5.88l0-.06a40,40,0,0,1,3-3.42c.75-.76,1.52-1.48,2.3-2.15.33-.28.66-.55,1-.81s.81-.61,1.23-.9.8-.55,1.21-.8a15.86,15.86,0,0,1,7.58-2.64C424.72,88.16,427.85,92.36,428.07,99.53Z" style="fill:#FFC100"></path><g style="opacity:0.4"><path d="M428.07,99.53c.17,5.85-1.68,12.51-4.82,18.56-3.37,6.54-8.24,12.38-13.63,15.7a15.9,15.9,0,0,1-7.57,2.64,6.82,6.82,0,0,1-5.66-2.42c-1.66-2-2.6-5-2.72-8.81a31.55,31.55,0,0,1,1-8.36c.26-1.09.57-2.18.93-3.26a46.86,46.86,0,0,1,2.28-5.64l.56-1.12c.32-.62.65-1.24,1-1.85a46.66,46.66,0,0,1,3.93-5.88l0-.06a40,40,0,0,1,3-3.42c.75-.76,1.52-1.48,2.3-2.15.33-.28.66-.55,1-.81s.81-.61,1.23-.9.8-.55,1.21-.8a15.86,15.86,0,0,1,7.58-2.64C424.72,88.16,427.85,92.36,428.07,99.53Z"></path></g><path d="M413.2,105l-6.71,12.74c-3-1.49-6.69-3.34-11.27-3.1.11-.36.22-.72.34-1.08a46.72,46.72,0,0,1,2.28-5.63c.19-.38.37-.76.56-1.13.32-.62.65-1.24,1-1.84a46.06,46.06,0,0,1,3.93-5.89l.05-.06c.21-.27.42-.53.64-.79C406.4,102.23,413.2,105,413.2,105Z" style="fill:#37474f"></path><path d="M407.48,117.93c-1.55,0-2.5-1.17-2.57-3.26v-.07a11.43,11.43,0,0,1,4.9-9.09l.05,0a4.44,4.44,0,0,1,2.14-.74c1.54,0,2.5,1.18,2.56,3.27v.06a11.39,11.39,0,0,1-4.89,9.09l-.05,0a4.48,4.48,0,0,1-2.14.73Z" style="fill:#FFC100"></path></g><path d="M409.67,79.3A1.63,1.63,0,0,1,408,77.72L407.53,62a1.63,1.63,0,0,1,3.25-.1l.47,15.72A1.63,1.63,0,0,1,409.67,79.3Z" style="fill:#e0e0e0"></path><path d="M395,81.31a1.61,1.61,0,0,1-1.43-.77l-8.26-13.37a1.62,1.62,0,1,1,2.76-1.71l8.26,13.37a1.62,1.62,0,0,1-.52,2.24A1.73,1.73,0,0,1,395,81.31Z" style="fill:#e0e0e0"></path><path d="M383.74,157.62a1.6,1.6,0,0,1-.82-.19,1.62,1.62,0,0,1-.66-2.2l7.45-13.84a1.62,1.62,0,1,1,2.86,1.54l-7.45,13.84A1.6,1.6,0,0,1,383.74,157.62Z" style="fill:#e0e0e0"></path><path d="M413.16,160.86a1.62,1.62,0,0,1-1.84-1.38l-2.21-15.56a1.63,1.63,0,1,1,3.22-.46L414.54,159A1.62,1.62,0,0,1,413.16,160.86Z" style="fill:#e0e0e0"></path><path d="M436.63,146.72a1.63,1.63,0,0,1-1.54-.52l-10.42-11.77a1.63,1.63,0,1,1,2.44-2.15l10.41,11.77a1.63,1.63,0,0,1-.89,2.67Z" style="fill:#e0e0e0"></path><path d="M449.56,128.9a1.6,1.6,0,0,1-.82-.19l-13.84-7.45a1.62,1.62,0,0,1,1.54-2.86l13.84,7.45a1.62,1.62,0,0,1-.72,3.05Z" style="fill:#e0e0e0"></path><path d="M454.83,106.57l-15.71.47a1.63,1.63,0,0,1-.1-3.25l15.72-.47a1.64,1.64,0,0,1,1.67,1.58A1.62,1.62,0,0,1,454.83,106.57Z" style="fill:#e0e0e0"></path><path d="M434.87,92.86a1.65,1.65,0,0,1-1.44-.77,1.63,1.63,0,0,1,.53-2.24l13.37-8.26A1.63,1.63,0,0,1,449,84.36l-13.37,8.26A1.69,1.69,0,0,1,434.87,92.86Z" style="fill:#e0e0e0"></path><path d="M424.08,82.7a1.58,1.58,0,0,1-.81-.19,1.62,1.62,0,0,1-.66-2.2l7.45-13.84A1.62,1.62,0,1,1,432.92,68l-7.45,13.84A1.61,1.61,0,0,1,424.08,82.7Z" style="fill:#e0e0e0"></path></g></g></svg>