<svg xmlns="http://www.w3.org/2000/svg" viewBox="0 0 500 500"><g id="freepik--background-complete--inject-15"><rect y="382.4" width="500" height="0.25" style="fill:#ebebeb"></rect><rect x="131.47" y="397.82" width="33.12" height="0.25" style="fill:#ebebeb"></rect><rect x="250.15" y="395.11" width="8.69" height="0.25" style="fill:#ebebeb"></rect><rect x="52.46" y="390.89" width="19.19" height="0.25" style="fill:#ebebeb"></rect><rect x="389.7" y="389.21" width="26.08" height="0.25" style="fill:#ebebeb"></rect><rect x="357.35" y="389.21" width="23.44" height="0.25" style="fill:#ebebeb"></rect><rect x="356.23" y="401.21" width="93.68" height="0.25" style="fill:#ebebeb"></rect><path d="M237,337.8H43.91a5.71,5.71,0,0,1-5.7-5.71V60.66A5.71,5.71,0,0,1,43.91,55H237a5.71,5.71,0,0,1,5.71,5.71V332.09A5.71,5.71,0,0,1,237,337.8ZM43.91,55.2a5.46,5.46,0,0,0-5.45,5.46V332.09a5.46,5.46,0,0,0,5.45,5.46H237a5.47,5.47,0,0,0,5.46-5.46V60.66A5.47,5.47,0,0,0,237,55.2Z" style="fill:#ebebeb"></path><path d="M453.31,337.8H260.21a5.72,5.72,0,0,1-5.71-5.71V60.66A5.72,5.72,0,0,1,260.21,55h193.1A5.71,5.71,0,0,1,459,60.66V332.09A5.71,5.71,0,0,1,453.31,337.8ZM260.21,55.2a5.47,5.47,0,0,0-5.46,5.46V332.09a5.47,5.47,0,0,0,5.46,5.46h193.1a5.47,5.47,0,0,0,5.46-5.46V60.66a5.47,5.47,0,0,0-5.46-5.46Z" style="fill:#ebebeb"></path><polygon points="363.33 169.11 392.81 169.11 389.33 98.2 363.33 98.2 363.33 169.11" style="fill:#f5f5f5"></polygon><polygon points="422.16 180.03 428.52 199.85 422.16 199.85 383.19 180.03 422.16 180.03" style="fill:#f5f5f5"></polygon><polygon points="428.52 180.03 428.52 199.85 389.55 180.03 428.52 180.03" style="fill:#e6e6e6"></polygon><polygon points="252.26 180.03 258.62 199.85 252.26 199.85 213.29 180.03 252.26 180.03" style="fill:#f5f5f5"></polygon><polygon points="258.62 180.03 258.62 199.85 219.65 180.03 258.62 180.03" style="fill:#e6e6e6"></polygon><rect x="414.74" y="169.22" width="25.15" height="11.62" style="fill:#e6e6e6"></rect><rect x="204.04" y="169.22" width="210.7" height="11.62" transform="translate(618.78 350.06) rotate(180)" style="fill:#f5f5f5"></rect><polygon points="276.61 169.11 383.3 169.11 391.12 83.18 284.43 83.18 276.61 169.11" style="fill:#e6e6e6"></polygon><polygon points="273.33 169.11 380.03 169.11 387.85 83.18 281.15 83.18 273.33 169.11" style="fill:#f0f0f0"></polygon><polygon points="374.71 159.6 381.87 92.69 286.47 92.69 279.31 159.6 374.71 159.6" style="fill:#fff"></polygon><rect x="413.76" y="256.15" width="24.82" height="120.7" transform="translate(852.34 633) rotate(180)" style="fill:#f0f0f0"></rect><rect x="261.05" y="376.85" width="170.98" height="5.55" transform="translate(693.08 759.25) rotate(180)" style="fill:#f0f0f0"></rect><rect x="254.5" y="256.15" width="159.26" height="120.7" style="fill:#f5f5f5"></rect><rect x="267.91" y="299.77" width="132.43" height="28.72" style="fill:#f0f0f0"></rect><rect x="267.91" y="337.36" width="132.43" height="28.72" style="fill:#f0f0f0"></rect><path d="M302.52,301.74h63.22a2,2,0,0,0,2-2h0a2,2,0,0,0-2-2H302.52a2,2,0,0,0-2,2h0A2,2,0,0,0,302.52,301.74Z" style="fill:#f5f5f5"></path><path d="M302.52,339.32h63.22a2,2,0,0,0,2-2h0a2,2,0,0,0-2-2H302.52a2,2,0,0,0-2,2h0A2,2,0,0,0,302.52,339.32Z" style="fill:#f5f5f5"></path><rect x="267.91" y="262.18" width="132.43" height="28.72" style="fill:#f0f0f0"></rect><path d="M302.52,264.15h63.22a2,2,0,0,0,2-2h0a2,2,0,0,0-2-2H302.52a2,2,0,0,0-2,2h0A2,2,0,0,0,302.52,264.15Z" style="fill:#f5f5f5"></path><rect x="74.2" y="92.53" width="134.24" height="274.02" transform="translate(282.65 459.08) rotate(180)" style="fill:#e6e6e6"></rect><rect x="69.12" y="92.53" width="138.6" height="274.02" transform="translate(276.85 459.08) rotate(180)" style="fill:#f0f0f0"></rect><rect x="74.2" y="366.55" width="134.24" height="4.72" transform="translate(282.65 737.82) rotate(180)" style="fill:#e6e6e6"></rect><rect x="60.66" y="366.55" width="138.6" height="4.72" transform="translate(259.92 737.82) rotate(180)" style="fill:#f0f0f0"></rect><rect x="8.53" y="167.35" width="259.79" height="124.38" transform="translate(367.96 91.12) rotate(90)" style="fill:#fafafa"></rect><polygon points="128.63 359.44 140.02 99.64 159.72 99.64 148.33 359.44 128.63 359.44" style="fill:#fff"></polygon><path d="M197.32,177.8a.55.55,0,0,0,.55-.54v-73a.55.55,0,0,0-.55-.54.54.54,0,0,0-.54.54v73A.54.54,0,0,0,197.32,177.8Z" style="fill:#f0f0f0"></path><polygon points="152.56 359.44 163.95 99.64 171.63 99.64 160.24 359.44 152.56 359.44" style="fill:#fff"></polygon><rect x="-53.21" y="229.09" width="259.79" height="0.9" transform="translate(306.22 152.86) rotate(90)" style="fill:#e6e6e6"></rect><polygon points="67.44 108.92 203.34 108.92 203.99 102.41 68.1 102.41 67.44 108.92" style="fill:#e0e0e0;opacity:0.5"></polygon><polygon points="67.44 119.64 203.34 119.64 203.99 113.12 68.1 113.12 67.44 119.64" style="fill:#e0e0e0;opacity:0.5"></polygon><polygon points="67.44 130.35 203.34 130.35 203.99 123.83 68.1 123.83 67.44 130.35" style="fill:#e0e0e0;opacity:0.5"></polygon><polygon points="67.44 141.06 203.34 141.06 203.99 134.54 68.1 134.54 67.44 141.06" style="fill:#e0e0e0;opacity:0.5"></polygon><polygon points="67.44 151.77 203.34 151.77 203.99 145.26 68.1 145.26 67.44 151.77" style="fill:#e0e0e0;opacity:0.5"></polygon><polygon points="67.44 162.49 203.34 162.49 203.99 155.97 68.1 155.97 67.44 162.49" style="fill:#e0e0e0;opacity:0.5"></polygon></g><g id="freepik--Shadow--inject-15"><ellipse id="freepik--path--inject-15" cx="250" cy="416.24" rx="193.89" ry="11.32" style="fill:#f5f5f5"></ellipse></g><g id="freepik--Device--inject-15"><path d="M268.77,392.93H140.52a8.55,8.55,0,0,1-8.58-8.95l10.73-259.49a9.43,9.43,0,0,1,9.32-8.94H280.24a8.54,8.54,0,0,1,8.58,8.94L278.09,384A9.44,9.44,0,0,1,268.77,392.93Z" style="fill:#2C0080"></path><path d="M268.77,392.93H140.52a8.55,8.55,0,0,1-8.58-8.95l10.73-259.49a9.43,9.43,0,0,1,9.32-8.94H280.24a8.54,8.54,0,0,1,8.58,8.94L278.09,384A9.44,9.44,0,0,1,268.77,392.93Z" style="opacity:0.30000000000000004"></path><rect x="110.82" y="373.03" width="20.91" height="1" transform="translate(-256.96 479.22) rotate(-87.62)" style="fill:#2C0080"></rect><path d="M126.37,394.89a12,12,0,0,1-4.45-4.42l.87-.5a10.84,10.84,0,0,0,4.07,4Z" style="fill:#2C0080"></path><path d="M260.68,392.93H132.43a8.54,8.54,0,0,1-8.58-8.95l10.73-259.49a9.42,9.42,0,0,1,9.31-8.94H272.15a8.53,8.53,0,0,1,8.57,8.94L270,384A9.43,9.43,0,0,1,260.68,392.93Z" style="fill:#2C0080"></path><path d="M132.58,389.09a4.87,4.87,0,0,1-4.9-5.11l10.73-259.49a5.38,5.38,0,0,1,5.32-5.11H272a4.86,4.86,0,0,1,4.9,5.11L266.16,384a5.38,5.38,0,0,1-5.32,5.11Z" style="fill:#fff"></path><path d="M257.84,362h-120a3.24,3.24,0,0,1-3.26-3.41l9.17-221.85a3.58,3.58,0,0,1,3.55-3.41h120a3.24,3.24,0,0,1,3.27,3.41l-9.17,221.85A3.59,3.59,0,0,1,257.84,362Z" style="fill:#2C0080;opacity:0.2"></path><path d="M196.92,384.69a9.23,9.23,0,0,1-9.29-9.68,10.14,10.14,0,0,1,10-9.64,9.23,9.23,0,0,1,9.29,9.69A10.14,10.14,0,0,1,196.92,384.69Zm.74-18a8.85,8.85,0,0,0-8.75,8.41,7.94,7.94,0,0,0,8,8.35,8.85,8.85,0,0,0,8.75-8.4h0a7.94,7.94,0,0,0-8-8.36Z" style="fill:#2C0080;opacity:0.2"></path><ellipse cx="201.15" cy="287.75" rx="48.24" ry="46.29" transform="translate(-143.9 222.94) rotate(-44.41)" style="fill:#2C0080;opacity:0.6000000000000001"></ellipse><path d="M223,299.68l.54-13.21c.51-12.12-8.49-22.43-20.58-22.86a23.47,23.47,0,0,0-24.07,22.32l-.57,13.75a2.54,2.54,0,0,1-.79,1.73L174,304.79a2.58,2.58,0,0,0-.79,1.74h0a2.33,2.33,0,0,0,2.35,2.45H225a2.58,2.58,0,0,0,2.55-2.45h0a2.36,2.36,0,0,0-.65-1.74l-3.24-3.38A2.32,2.32,0,0,1,223,299.68Z" style="fill:#fff"></path><path d="M206.26,256.13a4,4,0,0,1-4,3.81,3.62,3.62,0,0,1-3.64-3.81,4,4,0,0,1,4-3.8A3.62,3.62,0,0,1,206.26,256.13Z" style="fill:#fff"></path><path d="M195.1,312.5a2.06,2.06,0,0,0-2,2.66,7,7,0,0,0,6.69,4.73,7.79,7.79,0,0,0,7.09-4.73,1.9,1.9,0,0,0-1.75-2.66Z" style="fill:#fff"></path></g><g id="freepik--speech-bubble--inject-15"><path d="M227.42,196.21H78.91A9.88,9.88,0,0,1,69,185.85l.88-21.38a10.93,10.93,0,0,1,10.79-10.36H229.16a9.89,9.89,0,0,1,9.93,10.36l-.88,21.38A10.94,10.94,0,0,1,227.42,196.21Z" style="fill:#2C0080"></path><path d="M227.42,196.21H78.91A9.88,9.88,0,0,1,69,185.85l.88-21.38a10.93,10.93,0,0,1,10.79-10.36H229.16a9.89,9.89,0,0,1,9.93,10.36l-.88,21.38A10.94,10.94,0,0,1,227.42,196.21Z" style="opacity:0.30000000000000004"></path><path d="M218,196.21H69.54a9.9,9.9,0,0,1-9.94-10.36l.89-21.38a10.92,10.92,0,0,1,10.79-10.36h148.5a9.9,9.9,0,0,1,9.94,10.36l-.89,21.38A10.92,10.92,0,0,1,218,196.21Z" style="fill:#2C0080"></path><polygon points="177.08 190.54 204.04 218.66 205.2 190.54 177.08 190.54" style="fill:#2C0080"></polygon><path d="M102.18,160H91.32a1.48,1.48,0,1,1,0-3h10.86a1.48,1.48,0,0,1,0,3Z" style="fill:#fff;opacity:0.2"></path><path d="M64.49,176.64h-.07A1.48,1.48,0,0,1,63,175.1l.44-10.69a7.73,7.73,0,0,1,7.64-7.34H83.26a1.48,1.48,0,1,1,0,3H71.09a4.73,4.73,0,0,0-4.68,4.5L66,175.22A1.47,1.47,0,0,1,64.49,176.64Z" style="fill:#fff;opacity:0.2"></path><path d="M73.15,178.12l4.68-.29a3.5,3.5,0,0,0,.55,1.74,2.49,2.49,0,0,0,2.13,1,2.47,2.47,0,0,0,1.64-.49,1.57,1.57,0,0,0,.62-1.15,1.4,1.4,0,0,0-.5-1.1,6,6,0,0,0-2.48-.92,10.27,10.27,0,0,1-4.52-1.93A3.73,3.73,0,0,1,74,171.87a4.42,4.42,0,0,1,.81-2.32A5,5,0,0,1,77,167.84a10.25,10.25,0,0,1,3.93-.62,7.82,7.82,0,0,1,4.6,1.13A4.68,4.68,0,0,1,87.3,172l-4.64.27a2.34,2.34,0,0,0-.71-1.56,2.38,2.38,0,0,0-1.61-.49,2.06,2.06,0,0,0-1.31.36,1.22,1.22,0,0,0-.47.88.86.86,0,0,0,.33.69,4,4,0,0,0,1.63.58,19.8,19.8,0,0,1,4.55,1.41,4.6,4.6,0,0,1,2,1.76,4.32,4.32,0,0,1,.53,2.35,5.19,5.19,0,0,1-1,2.82,5.65,5.65,0,0,1-2.44,2,9.87,9.87,0,0,1-3.86.66q-4,0-5.55-1.56A5.87,5.87,0,0,1,73.15,178.12Z" style="fill:#fff"></path><path d="M100.82,167.49h4.9l-.39,9.47a8.14,8.14,0,0,1-.55,2.66,6.22,6.22,0,0,1-1.47,2.19,5.77,5.77,0,0,1-2,1.31,10,10,0,0,1-3.46.53,21,21,0,0,1-2.52-.16,6.49,6.49,0,0,1-2.27-.64,5.65,5.65,0,0,1-1.63-1.37,4.9,4.9,0,0,1-1-1.84A9.4,9.4,0,0,1,90.1,177l.39-9.47h4.9l-.4,9.69a2.64,2.64,0,0,0,.64,2,2.56,2.56,0,0,0,2,.74,2.74,2.74,0,0,0,2-.73,2.89,2.89,0,0,0,.81-2Z" style="fill:#fff"></path><path d="M109,167.49h9.2a4.83,4.83,0,0,1,3.48,1.14,3.52,3.52,0,0,1,1.11,2.82,3.65,3.65,0,0,1-1,2.41,4.05,4.05,0,0,1-1.75,1.07,4.18,4.18,0,0,1,2.46,1.41,3.78,3.78,0,0,1,.7,2.52,4.41,4.41,0,0,1-.66,2.22,4.46,4.46,0,0,1-1.64,1.56,5.14,5.14,0,0,1-1.89.52,20.27,20.27,0,0,1-2.21.22h-8.47Zm4.7,6.23h2.14a2.55,2.55,0,0,0,1.61-.39,1.53,1.53,0,0,0,.5-1.15,1.3,1.3,0,0,0-.41-1.08,2.33,2.33,0,0,0-1.55-.39H113.8Zm-.26,6.25h2.51a2.83,2.83,0,0,0,1.8-.45,1.59,1.59,0,0,0,.57-1.21,1.33,1.33,0,0,0-.46-1.13,2.79,2.79,0,0,0-1.79-.43h-2.5Z" style="fill:#fff"></path><path d="M125,178.12l4.68-.29a3.41,3.41,0,0,0,.55,1.74A2.9,2.9,0,0,0,134,180a1.56,1.56,0,0,0,.61-1.15,1.39,1.39,0,0,0-.49-1.1,6,6,0,0,0-2.48-.92,10.38,10.38,0,0,1-4.53-1.93,3.75,3.75,0,0,1-1.26-3.07,4.34,4.34,0,0,1,.81-2.32,5.07,5.07,0,0,1,2.2-1.71,10.31,10.31,0,0,1,3.94-.62,7.82,7.82,0,0,1,4.6,1.13A4.71,4.71,0,0,1,139.1,172l-4.64.27a2.34,2.34,0,0,0-.71-1.56,2.38,2.38,0,0,0-1.61-.49,2.06,2.06,0,0,0-1.31.36,1.18,1.18,0,0,0-.47.88.86.86,0,0,0,.33.69,3.89,3.89,0,0,0,1.63.58,20,20,0,0,1,4.55,1.41,4.51,4.51,0,0,1,1.95,1.76,4.24,4.24,0,0,1,.54,2.35,5.19,5.19,0,0,1-1,2.82,5.62,5.62,0,0,1-2.45,2,9.82,9.82,0,0,1-3.85.66q-4,0-5.55-1.56A5.87,5.87,0,0,1,125,178.12Z" style="fill:#fff"></path><path d="M152.47,176.88l4.25,1.3a8.37,8.37,0,0,1-1.49,3,6.36,6.36,0,0,1-2.39,1.83,8.72,8.72,0,0,1-3.55.62,10.06,10.06,0,0,1-4.2-.75,6.33,6.33,0,0,1-2.72-2.65,10.13,10.13,0,0,1,1.35-10.91,8.28,8.28,0,0,1,6-2.12,7.83,7.83,0,0,1,4.67,1.21,6.7,6.7,0,0,1,2.39,3.73l-4.37,1a3.77,3.77,0,0,0-.43-1.07,2.69,2.69,0,0,0-1-.86,2.74,2.74,0,0,0-1.32-.31,3,3,0,0,0-2.61,1.35A8.13,8.13,0,0,0,147,179a2.65,2.65,0,0,0,2.21,1,2.9,2.9,0,0,0,2.17-.79A5.22,5.22,0,0,0,152.47,176.88Z" style="fill:#fff"></path><path d="M159,183.38l.66-15.89h8.19a11.73,11.73,0,0,1,3.46.39,3.47,3.47,0,0,1,1.88,1.45,4.27,4.27,0,0,1,.63,2.57,4.62,4.62,0,0,1-.66,2.28,4.72,4.72,0,0,1-1.61,1.56,6.48,6.48,0,0,1-1.75.63A4.76,4.76,0,0,1,171,177a5,5,0,0,1,.75.84,6.11,6.11,0,0,1,.65,1l2.19,4.6H169l-2.43-4.86a3.38,3.38,0,0,0-.84-1.22,2,2,0,0,0-1.18-.37h-.44l-.26,6.45Zm5.33-9.45h2.07a7.19,7.19,0,0,0,1.31-.22,1.32,1.32,0,0,0,.81-.5,1.46,1.46,0,0,0,.35-.92,1.38,1.38,0,0,0-.44-1.18,2.89,2.89,0,0,0-1.81-.41h-2.16Z" style="fill:#fff"></path><path d="M177,167.49h4.92l-.66,15.89h-4.92Z" style="fill:#fff"></path><path d="M185.46,167.49h9.2a4.83,4.83,0,0,1,3.48,1.14,3.52,3.52,0,0,1,1.11,2.82,3.69,3.69,0,0,1-1,2.41,4.15,4.15,0,0,1-1.76,1.07,4.18,4.18,0,0,1,2.46,1.41,3.73,3.73,0,0,1,.7,2.52,4.41,4.41,0,0,1-.66,2.22,4.46,4.46,0,0,1-1.64,1.56,5.14,5.14,0,0,1-1.88.52,20.73,20.73,0,0,1-2.21.22h-8.48Zm4.7,6.23h2.14a2.55,2.55,0,0,0,1.61-.39,1.53,1.53,0,0,0,.5-1.15,1.32,1.32,0,0,0-.4-1.08,2.37,2.37,0,0,0-1.56-.39h-2.16ZM189.9,180h2.51a2.81,2.81,0,0,0,1.8-.45,1.63,1.63,0,0,0,.58-1.21,1.36,1.36,0,0,0-.47-1.13,2.77,2.77,0,0,0-1.79-.43H190Z" style="fill:#fff"></path><path d="M202.71,167.49h13.16l-.14,3.39h-8.24l-.1,2.53H215l-.13,3.24h-7.64l-.13,3.13h8.47l-.14,3.6h-13.4Z" style="fill:#fff"></path><polygon points="213.29 218.66 204.04 218.66 204.97 196.21 214.22 196.21 213.29 218.66" style="fill:#2C0080"></polygon><polygon points="213.29 218.66 204.04 218.66 204.97 196.21 214.22 196.21 213.29 218.66" style="opacity:0.30000000000000004"></polygon></g></svg>